<svg viewBox="0 0 500 500" xmlns="http://www.w3.org/2000/svg"><g fill="#509f45"><path d="m476.09 344.67c-.99-40.45-30.14-77.38-69.3-87.79-.01 0-.03 0-.04-.01 1.8-25.35-5.05-50.14-19.82-71.75-13.81-20.19-34.01-36.45-56.89-45.79-63.54-25.93-137.38 3.16-164.6 64.83-3.12 7.06-5.08 14.56-6.97 21.81l-.52 1.98c-.08.31-.15.54-.21.7-.05 0-.1.02-.16.02-40.15 5.48-76.7 41.47-83.22 81.93-.82 5.1-2.02 6.59-6.76 8.4-24.61 9.42-39.5 27-43.05 50.85-3.19 21.42 4.96 40.06 24.22 55.4 13.23 10.54 29.45 15.6 49.61 15.45 33.75-.25 68.07-.2 101.26-.16 13.41.02 26.82.04 40.23.04 14.49 0 29.21-.06 43.45-.12 32.42-.14 65.93-.28 98.86.31.51 0 1.01.01 1.52.01 23.83 0 47.37-9.98 64.81-27.53 18.14-18.26 28.19-43.26 27.57-68.59zm-412.54 63.97c-9.09-6.41-15.03-16.22-16.32-26.92-1.26-10.54 1.94-20.81 9.03-28.91 6.71-7.67 15.91-12.51 28.13-14.79 8.07-1.5 11.07-4.89 11.46-12.95 1.2-24.82 11.8-44.97 31.5-59.89 15.43-11.69 31.13-16 48.01-13.2 16.04 2.66 29.3 10.56 40.52 24.14 4.8 5.81 11.38 6.85 16.75 2.65 2.64-2.06 4.19-4.75 4.49-7.78.23-2.3-.19-5.85-3.49-9.68-3.61-4.2-6.7-7.42-9.72-10.13-12.21-10.98-26.24-18.1-42.76-21.68 3.68-16.44 11.12-30.9 22.14-43.02 30.42-33.44 81.3-43.23 123.74-23.8 40.23 18.42 61.57 57.13 55.69 101.02-.99 7.4 2.91 12.59 10.71 14.26l1.9.4c5.32 1.12 10.81 2.29 15.65 4.26 29.93 12.2 47.07 45.08 40.75 78.18-6.43 33.66-32.19 55.84-65.63 56.52-10.27.21-20.74.16-30.87.12-4.27-.02-8.54-.04-12.81-.04h-.07c-21.79 0-43.58 0-65.37 0-58.12-.01-118.22-.02-177.34.07-12.21 0-25.05-1.04-36.09-8.82z" opacity=".5"/><path d="m97.51 242.47c1.17.48 2.61.73 4.11.73 3.07 0 6.41-1.03 8.27-3.18 2.79-3.23 3.29-8.21 2.87-11.49-.43-3.32-1.14-6.57-1.82-9.71-1-4.58-1.94-8.9-1.99-13.12-.26-18.63 6.39-35.81 18.73-48.37 12.69-12.91 30.45-20.06 50.03-20.12h.1c7.78-.19 16.55 1.63 25.37 5.29 7.53 3.12 14.13 1.02 16.83-5.36 2.17-5.13 1.28-12-7.73-15.92-24.92-10.83-53.43-9.46-78.22 3.78-24.9 13.3-41.98 36.35-46.87 63.25-2.81 15.49-1.76 30.81 3.14 45.53 1.02 3.06 3.51 7.17 7.19 8.7z"/><path d="m49.07 204.83c5.05 0 10.11.08 15.16-.03 4.32-.09 7-2.64 7.14-6.51.14-4.03-2.57-7.05-7.03-7.12-10.25-.16-20.51-.15-30.76 0-4.39.06-7.32 3.16-7.22 7.03.1 3.9 3.04 6.55 7.55 6.62 5.05.08 10.11.02 15.16.02z"/><path d="m82.96 122.73c.95.93 2.55 1.21 4.6 2.13 1.72-1.28 4.44-2.3 5.24-4.15.87-2.04.98-5.75-.31-7.15-7.53-8.18-15.47-16-23.48-23.71-2.6-2.51-6.64-2.02-8.99.57-2.58 2.84-3 6.25-.36 9.01 7.59 7.93 15.44 15.62 23.3 23.3z"/><path d="m173.47 97.93c3.98.13 6.87-2.93 6.98-7.67.11-5.05.03-10.11.02-15.16 0-4.91.09-9.82-.03-14.73-.11-4.76-2.54-7.39-6.6-7.49-4.27-.1-6.92 2.6-6.97 7.54-.1 9.96-.1 19.92 0 29.88.04 4.58 2.72 7.49 6.59 7.62z"/></g></svg>