<svg viewBox="0 0 500 500" xmlns="http://www.w3.org/2000/svg"><g fill="#509f45"><path d="m250.45 454.21c-70.22-1.3-132.91-22.04-186.75-67.76-7.73-6.57-10.74-12.48-6.31-22.11 11.07-24.1 19.77-49.52 32.96-72.37 14.28-24.75 42.33-31.52 68.53-19.86 60.65 26.98 121.15 27.33 181.95.5 28.19-12.44 56.1-5.51 70.84 20.99 13.36 24.02 22.97 50.22 32.7 76.04 1.55 4.11-3.52 12.92-7.96 16.76-53.38 46.18-116.3 66.69-185.96 67.81zm-1.24-26.24c41.86-.45 79.86-8.77 115.87-25.71 56.69-26.66 61.07-44.09 24.45-95.45-9.17-12.86-21.31-17.51-35.54-11.13-69.15 30.99-138 30.85-207.14.03-13.53-6.03-26.61-3-34.24 10-9.3 15.85-16.62 32.87-24.79 49.38-5 10.09-1.65 16.65 7.37 23.09 46.77 33.41 98.99 49.12 154.02 49.79z" opacity=".5"/><path d="m250.15 264.47c-60.51.06-108.85-48.32-109.01-109.12-.16-60.42 48.43-109.36 108.79-109.55 60.99-.2 110.67 49.49 110.1 110.12-.57 60.48-49.17 108.5-109.88 108.56zm-82.72-108.86c.2 46 37.36 82.93 83.37 82.84 45.75-.08 82.74-37.5 82.65-83.6-.09-45.71-38.02-83.48-83.38-83.02-45.89.47-82.84 37.92-82.64 83.77z"/></g></svg>