<svg viewBox="0 0 500 500" xmlns="http://www.w3.org/2000/svg"><g fill="#509f45"><path d="m405.89 417.58h-311.78c-6.46 0-11.69-5.23-11.69-11.69s5.23-11.69 11.69-11.69h311.78c6.46 0 11.69 5.23 11.69 11.69s-5.23 11.69-11.69 11.69z"/><path d="m285.08 417.58h-70.15c-6.46 0-11.69-5.23-11.69-11.69v-280.6c0-26.84 14.86-42.87 39.75-42.87h14.03c24.89 0 39.75 16.03 39.75 42.87v280.6c0 6.46-5.23 11.69-11.69 11.69zm-58.46-23.38h46.77v-268.91c0-17.98-8.45-19.49-16.37-19.49h-14.03c-7.92 0-16.37 1.51-16.37 19.49z"/><path d="m172.06 417.58h-62.36c-6.46 0-11.69-5.23-11.69-11.69v-187.07c0-26.84 13.7-42.87 36.63-42.87h12.47c22.94 0 36.63 16.03 36.63 42.87v187.07c0 6.46-5.23 11.69-11.69 11.69zm-50.67-23.38h38.97v-175.38c0-19.49-8.62-19.49-13.25-19.49h-12.47c-4.63 0-13.25 0-13.25 19.49z" opacity=".5"/><path d="m390.3 417.58h-62.36c-6.46 0-11.69-5.23-11.69-11.69v-109.12c0-26.84 13.7-42.87 36.63-42.87h12.47c22.94 0 36.63 16.03 36.63 42.87v109.12c0 6.46-5.23 11.69-11.69 11.69zm-50.66-23.38h38.97v-97.43c0-19.49-8.62-19.49-13.25-19.49h-12.47c-4.63 0-13.25 0-13.25 19.49z" opacity=".5"/></g></svg>