<svg viewBox="0 0 500 500" xmlns="http://www.w3.org/2000/svg"><path d="m425.03 228.43-163.34-126.2c-6.89-5.32-16.53-5.32-23.43 0l-187.54 144.93c-8.38 6.49-20.45 4.91-26.89-3.47-6.49-8.38-4.96-20.45 3.47-26.89l187.53-144.93c20.72-15.99 49.64-15.99 70.32 0l187.58 144.92c8.38 6.49 9.91 18.52 3.47 26.89-3.83 4.91-9.51 7.48-15.23 7.48-4.1 0-8.24-1.31-11.71-4.01l-24.24-18.73" fill="#509f45"/><path d="m407.52 253.85c-5.52 0-10.01 4.49-10.01 10.01v130.99c0 13.93-11.33 25.26-25.26 25.26h-244.47c-13.93 0-25.26-11.33-25.26-25.26v-130.99c0-5.52-4.49-10.01-10.01-10.01s-10.01 4.49-10.01 10.01v130.99c0 24.96 20.31 45.27 45.27 45.27h244.43c24.95 0 45.28-20.31 45.32-45.29v-130.98c0-5.52-4.49-10.01-10.01-10.01z" fill="#509f45" opacity=".5"/><path d="m309.64 409.76v-68.11c0-16.66-10.55-30.17-23.56-30.17h-72.16c-13.01 0-23.56 13.51-23.56 30.17v68.11" fill="none" stroke="#509f45" stroke-linecap="round" stroke-linejoin="round" stroke-width="20"/></svg>