<svg viewBox="0 0 500 500" xmlns="http://www.w3.org/2000/svg"><g fill="#509f45"><path d="m149.59 364.2c-20.78 0-41.56.03-62.34-.01-9.48-.02-11.57-2.47-12.06-11.8-1.29-24.68 6.83-44.7 28.92-57.23 5.82-3.3 12.97-5.63 19.6-5.88 18.09-.7 36.36-1.36 54.33.35 25.51 2.42 44.92 24.79 46.09 50.45.16 3.58.17 7.16.17 10.75 0 11.7-1.64 13.38-13.1 13.38-20.54.01-41.08 0-61.62 0zm58.14-16.22c3.31-19.48-9.26-39.77-28.84-42.04-19.01-2.2-38.66-2.2-57.68-.08-19.86 2.21-33.81 24.54-28.96 42.12z"/><path d="m108.86 228.75c.88-23.19 20.05-41.45 42.31-40.31 23.11 1.18 40.69 20.1 39.84 42.86-.84 22.34-20.14 40.38-42.39 39.64-22.4-.75-40.6-20.06-39.76-42.19zm15.8 1.18c.05 13.67 11.16 24.85 24.97 25.12 13.74.27 25.77-11.53 25.72-25.22-.06-14.34-11.85-26.17-25.83-25.92-13.8.24-24.9 11.87-24.85 26.02z"/><path d="m336.65 310.9c-22.68 0-45.36.01-68.04-.02-2.38 0-5.42.63-6.98-.57-2.51-1.92-5.39-5.04-5.55-7.8-.12-2.19 3.28-5.07 5.73-6.73 1.51-1.03 4.17-.43 6.32-.43 45.6-.02 91.2-.01 136.8 0 1.67 0 3.35-.06 5.01.1 4.62.46 7.81 2.67 7.59 7.68-.21 4.74-3.08 7.32-7.81 7.67-1.9.14-3.82.09-5.73.09-22.44 0-44.88 0-67.33 0z"/><path d="m336.63 348.39h68.07c2.15 0 4.87-.66 6.31.39 2.6 1.89 5.81 4.67 6.15 7.4.28 2.23-2.84 5.49-5.23 7.24-1.63 1.2-4.59.74-6.96.74-45.62.03-91.23.03-136.85 0-2.36 0-5.34.44-6.95-.76-2.36-1.77-5.42-5.07-5.12-7.3.37-2.73 3.59-5.47 6.2-7.33 1.45-1.04 4.17-.38 6.31-.38 22.69-.02 45.38 0 68.07 0z"/><path d="m299.54 256.11c-11.2 0-22.39-.07-33.59.03-4.81.04-9.18-1.19-9.21-6.55-.03-5.49 4.56-6.51 9.23-6.51 22.63.02 45.26.05 67.89-.02 4.8-.02 9.19 1.12 9.16 6.56-.02 5.39-4.34 6.6-9.18 6.54-11.43-.13-22.87-.04-34.3-.04z"/><path d="m389.89 256.09c-6.2 0-12.4 0-18.59.01-4.45.02-8.2-1.81-7.19-6.49.54-2.52 4.29-6.08 6.73-6.19 12.84-.62 25.75-.63 38.59.02 2.49.13 4.79 4.13 7.18 6.35-2.47 2.1-4.73 5.62-7.44 6.01-6.31.9-12.83.29-19.27.29z"/><path d="m216.22 131.49c0-15.71 0-30.48 0-45.24 0-11.34 2.37-13.68 13.98-13.71 13.14-.03 26.28-.03 39.42 0 11.62.03 13.99 2.37 14 13.69.01 14.77 0 29.53 0 45.26h9.93c42.04 0 84.09.41 126.13-.14 28.42-.37 46.21 18.68 50 36.68 1.17 5.55 1.51 11.37 1.52 17.06.1 62.84-.42 125.68.25 188.51.38 35.5-25.34 54.01-54.22 53.88-112.03-.5-224.07-.19-336.11-.21-25.91 0-44.98-13.61-50.91-36.64-1.29-5.01-1.58-10.39-1.59-15.6-.1-63.79-.14-127.59-.03-191.38.05-26.26 12.62-43.98 35.98-50.44 5.63-1.56 11.79-1.63 17.71-1.65 41.8-.13 83.61-.07 125.41-.07h8.52zm67.4 16.07c0 12.15.06 23.59-.02 35.02-.05 8.32-2.27 10.54-10.73 10.59-14.81.09-29.62.06-44.43.02-10.33-.03-12.19-1.87-12.22-12-.03-11.16 0-22.31 0-34.27-3.35 0-5.69 0-8.03 0-42.28 0-84.56-.08-126.84.03-23.31.06-36.82 12.47-36.88 34.43-.18 64.99-.17 129.97.11 194.96.03 5.98 1.27 12.57 4 17.81 6.92 13.32 19.21 17.38 33.62 17.37 111.55-.1 223.11-.28 334.66.14 21.57.08 39.24-12.27 38.85-38.85-.86-57.81-.25-115.63-.28-173.45 0-7.64.23-15.32-.36-22.92-1.05-13.51-8.75-22.46-21.08-27.18-4.34-1.66-9.33-2.22-14.03-2.24-43.47-.16-86.95-.1-130.42-.07-1.63 0-3.27.33-5.92.61zm-14.36-14.81c0-13.14-.19-26.27.09-39.4.11-5.06-1.69-6.69-6.62-6.52-8.82.3-17.67.25-26.5.02-4.43-.11-5.74 1.69-5.72 5.92.13 26.99.14 53.97 0 80.96-.03 4.64 1.62 6.41 6.23 6.3 8.59-.2 17.2-.29 25.78.04 5.47.21 6.94-2.05 6.83-7.2-.28-13.37-.09-26.75-.1-40.12z" opacity=".5"/></g></svg>