<svg viewBox="0 0 500 500" xmlns="http://www.w3.org/2000/svg"><g fill="#509f45"><path d="m439.11 240.55-168.09-168.09c-11.6-11.6-30.42-11.6-42.02 0l-168.1 168.09c-11.6 11.6-11.6 30.42 0 42.02s30.42 11.6 42.02 0l147.08-147.08 147.08 147.08c11.61 11.6 30.42 11.6 42.03 0 11.6-11.61 11.6-30.42 0-42.02z"/><path d="m387.25 328.42-122-122c-8.42-8.42-22.08-8.42-30.5 0l-122 122c-8.42 8.42-8.42 22.08 0 30.5s22.08 8.42 30.5 0l106.75-106.75 106.75 106.75c8.42 8.42 22.08 8.42 30.5 0s8.42-22.08 0-30.5z" opacity=".5"/><path d="m354.33 408.26-92.74-92.74c-6.4-6.4-16.78-6.4-23.18 0l-92.74 92.74c-6.4 6.4-6.4 16.78 0 23.18s16.78 6.4 23.18 0l81.15-81.15 81.15 81.15c6.4 6.4 16.78 6.4 23.19 0 6.4-6.4 6.4-16.78 0-23.18z" opacity=".5"/></g></svg>