<svg viewBox="0 0 500 500" xmlns="http://www.w3.org/2000/svg"><g fill="#509f45"><path d="m231.43 249.7c.06-10.32 8.3-18.44 18.68-18.41 10.37.03 18.51 8.19 18.52 18.57 0 10.56-8.29 18.74-18.9 18.64-10.28-.1-18.36-8.4-18.3-18.8z"/><path d="m452.82 202.39c-4.17 2.69-8.35 5.38-12.52 8.07l18.13-11.36v-.19c-2.44 1.51-4.04 2.47-5.61 3.48z"/><path d="m440.24 210.51s.04-.03.07-.04z"/><path d="m458.44 199.1v5.77 10.35c-.02 60.85-.17 121.7.16 182.55.07 13.42-9.73 22.76-22.47 22.73-124.02-.3-248.04-.31-372.06 0-13.21.03-22.67-9.67-22.6-22.59.33-61.11.18-122.21.16-183.32 0-3.34 0-6.68 0-10.02v-5.59l-18.5-11.31c0 6.88.01 13.76.02 20.63.06 63.14.17 126.28-.23 189.41-.15 23.71 18.35 41.53 41.5 41.36 83.81-.62 167.62-.25 251.43-.25 40.65 0 81.3.04 121.95-.02 19.4-.03 34.19-12.02 38.4-30.88.15-.68.59-1.29.89-1.94v-218.58l-18.65 11.69z" opacity=".5"/><path d="m476.08 147.74c-3.23-12.91-10.81-22.37-23.19-27.17-5.08-1.97-10.91-2.68-16.42-2.73-28.97-.26-57.94-.21-86.91-.02-.53 0-1.01-.01-1.44-.06h-22.69v-2.76c-.01.73-.02 1.46-.02 2.2h-150.74l-.13.53h-27.95c-27.64 0-55.28-.02-82.92.02-3.09 0-6.25-.02-9.26.57-18.81 3.68-31.27 19.27-31.27 39.05v30.3l18.5 11.31c2.17 1.29 3.65 2.12 5.08 3.04 60.34 38.89 120.67 77.79 181 116.7 14.81 9.56 29.68 9.67 44.48.14 56.03-36.09 112.04-72.23 168.05-108.34s.07-.04.07-.04c4.17-2.69 8.35-5.38 12.52-8.07 1.57-1.01 3.18-1.97 5.61-3.48v.19l18.65-11.69v-36.86c-.34-.94-.77-1.85-1.01-2.82zm-18.71 28.62c-2.52 4.7-9.46 7.08-14.54 10.36-59.81 38.59-119.66 77.1-179.4 115.79-9.15 5.93-17.46 6.01-26.68.04-63.46-41.11-127.03-82.04-190.65-122.9-3.42-2.2-4.87-4.54-4.56-8.56.34-4.41.07-8.86.08-13.29.04-13.42 8.14-21.57 21.48-21.57h187.09s124.14.22 186.2-.18c12.55-.08 22.9 9.41 22.08 22.09-.4 6.16 1.51 13.36-1.1 18.23z"/><path d="m174.85 94.47c1.01-8.23 9.64-14.94 18.02-14.96 38.12-.08 76.23-.09 114.35 0 8.39.02 16.98 6.73 17.99 14.99.82 6.67.31 13.51.21 20.49v2.76h22.69c-3.03-.28-3.92-1.71-3.67-5.2.3-4.27.16-8.57.04-12.85-.62-22.92-16.76-38.72-39.66-38.74-37.1-.04-74.2-.09-111.31.03-17.79.06-32.97 12.06-36.79 29.44-1.28 5.83-1.03 12.03-1.14 18.07-.17 9.21-.04 9.21-9.01 9.21h27.95s.13-.52.13-.52c0-7.78-.72-15.35.19-22.73z"/></g></svg>