<svg viewBox="0 0 500 500" xmlns="http://www.w3.org/2000/svg"><path d="m53.7 338.35c1.79-2.13 2.9-3.42 3.96-4.73z"/><g fill="#509f45"><path d="m459.54 263.11c-3.72-15.22-18.31-26.46-35.34-26.98-11.92-.37-23.85-.14-35.78-.18h-48.73c-51.76 0-103.52.02-155.28-.01-25.64-.02-46.46 10.1-62.63 29.8-16.88 20.55-33.56 41.26-50.33 61.89-.99 1.22-2.02 2.41-3.68 4.39 0-.08 0-.15-.01-.22l-27.89 31.52c.06.18.11.36.15.54 4.91 24.95 24.22 41.53 49.32 41.57 79.51.13 159.03.24 238.54-.07 21.81-.08 41.14-8.27 55.33-24.87 23.16-27.07 45.3-55.02 67.65-82.78 8.09-10.05 11.86-21.61 8.69-34.59zm-28.76 13.7c-1.26 2.11-2.73 4.12-4.27 6.03-20.34 25.16-40.72 50.3-61.09 75.44-10.13 12.5-23.25 18.81-39.33 18.83-38.94.03-77.89.01-116.83.01s-77.89 0-116.83-.02c-2.87 0-5.8.01-8.61-.49-.49-.09-.95-.21-1.39-.36-4.89-1.56-6.69-6.19-4.12-11.09 1.14-2.17 2.52-4.26 4.06-6.17 4.21-5.21 8.41-10.42 12.61-15.63 16.62-20.62 33.24-41.24 50.06-61.7 9.27-11.27 21.69-17.43 36.26-17.47 79.39-.21 158.79-.11 238.18-.08 1.91 0 3.84.21 5.72.56 6.68 1.23 9.04 6.34 5.57 12.14z"/><path d="m349.86 235.95c-1.85 0-3.46 0-5.06 0-1.7 0-3.4 0-5.11 0s48.73 0 48.73 0c-3.25 0-6.49 0-10.07 0 0-11.44.12-22.39-.06-33.32-.07-4.36-.3-8.81-1.27-13.04-.18-.8-.39-1.58-.6-2.36-5.91-21.19-24.82-35.86-47.14-35.97-38.39-.2-76.77-.06-115.16-.07-1.61 0-3.22 0-5.28 0 0-2.41.01-4.42 0-6.44-.22-28.05-21.23-49.7-49.19-50.1-23.71-.33-47.43-.19-71.15-.03-16.29.11-29.2 7.2-39.24 19.9-5.51 6.96-8.14 15.07-9.92 23.57v223.86c.16.46.37.91.52 1.36l27.89-31.52c-.11-2.23-.22-3.51-.22-4.77 0-2.98 0-5.96 0-8.94 0-57.07-.01-114.15 0-171.22 0-12.18 5.64-20.61 15.67-23.15 2.62-.66 5.42-.77 8.15-.77 21.8-.06 43.59-.06 65.39-.02 15.58.03 23.85 8.32 23.91 23.86.01 3.57-.06 7.13.02 10.69.31 13.31 8.74 21.75 22.05 21.83 15.9.1 31.8.03 47.7.03 25.22 0 50.45-.01 75.67 0 8.8 0 15.33 2.72 19.34 7.88 3.06 3.93 4.66 9.27 4.69 15.93.04 9.6.02 19.19 0 28.79 0 1.2-.15 2.4-.26 4z" opacity=".5"/></g></svg>