<svg viewBox="0 0 500 500" xmlns="http://www.w3.org/2000/svg"><g fill="#509f45"><path d="m249.88 418.23c-49.05 0-98.11.02-147.16-.01-31.14-.02-59.24-22.93-65.4-53.48-1.06-5.23-1.62-10.66-1.63-16-.14-40.27-.08-80.55-.08-120.83 0-30.83-.03-61.66.02-92.5.04-25.55 17.32-47 42.3-52.46 3.29-.72 6.72-1.12 10.08-1.13 33.71-.08 67.42-.02 101.13-.07 1.74 0 2.75.52 3.72 2 8 12.21 16.12 24.34 24.15 36.53.79 1.2 1.63 1.62 3.05 1.62 57.54-.02 115.07.12 172.61-.08 15.36-.05 29.58 3.13 42.17 12.03 17.35 12.26 27.25 29.03 29.18 50.28.44 4.83.37 9.72.37 14.58.03 44.11.04 88.22 0 132.33 0 8.33.11 16.68-.41 24.98-.85 13.54-5.75 25.7-14.25 36.24-13.79 17.1-31.76 25.91-53.8 25.93-48.68.06-97.37.02-146.05.02zm.08-29.2v-.05h146.28c21.26 0 38.54-17.37 38.53-38.6-.02-53.41 0-106.81-.03-160.22 0-2.49-.26-5.01-.7-7.46-3.32-18.34-19.71-31.68-38.72-31.61-63.51.22-127.02.07-190.54.13-2.05 0-3.16-.69-4.24-2.33-7.92-12.08-15.95-24.1-23.89-36.17-.81-1.23-1.65-1.74-3.18-1.74-27.88.05-55.77.02-83.65.05-14.06.01-24.53 10.36-24.58 24.4-.08 23.83-.05 47.65-.05 71.48 0 40.79-.02 81.58.02 122.37 0 8.4-.27 16.85.42 25.2 1.61 19.37 18.38 34.43 37.85 34.5 12.61.05 25.23.05 37.84.05h108.66z" opacity=".5"/><path d="m325.01 211.01c4.79-8.59 7.18-12.88 10.76-12.88s5.97 4.29 10.76 12.88l1.24 2.22c1.36 2.44 2.04 3.66 3.1 4.46s2.38 1.1 5.02 1.7l2.4.54c9.29 2.1 13.94 3.15 15.05 6.71s-2.06 7.26-8.4 14.67l-1.64 1.92c-1.8 2.11-2.7 3.16-3.11 4.46s-.27 2.71 0 5.52l.25 2.56c.96 9.89 1.44 14.83-1.46 17.03-2.89 2.2-7.25.19-15.95-3.81l-2.25-1.04c-2.47-1.14-3.71-1.71-5.02-1.71s-2.55.57-5.02 1.71l-2.25 1.04c-8.7 4.01-13.05 6.01-15.95 3.81-2.89-2.2-2.42-7.14-1.46-17.03l.25-2.56c.27-2.81.41-4.21 0-5.52-.41-1.3-1.31-2.36-3.11-4.46l-1.64-1.92c-6.34-7.41-9.5-11.11-8.4-14.67 1.11-3.56 5.75-4.61 15.05-6.71l2.4-.54c2.64-.6 3.96-.9 5.02-1.7s1.74-2.02 3.1-4.46l1.24-2.22z"/></g></svg>