<svg viewBox="0 0 500 500" xmlns="http://www.w3.org/2000/svg"><g fill="#509f45"><path d="m250 453.6c-45.9 0-79.07 0-105.8-3.59-30.04-4.04-50.36-12.77-65.9-28.3-15.53-15.53-24.26-35.86-28.3-65.9-3.59-26.73-3.59-59.9-3.59-105.8s0-79.07 3.59-105.8c4.04-30.04 12.77-50.37 28.3-65.9s35.86-24.26 65.9-28.3c26.73-3.59 59.9-3.59 105.8-3.59s79.07 0 105.8 3.59c30.04 4.04 50.37 12.77 65.9 28.3s24.26 35.86 28.3 65.9c3.59 26.73 3.59 59.9 3.59 105.8s0 79.07-3.59 105.8c-4.04 30.04-12.77 50.37-28.3 65.9s-35.86 24.26-65.9 28.3c-26.73 3.59-59.9 3.59-105.8 3.59zm0-378.79c-85.25 0-128.04 0-151.61 23.58-23.58 23.58-23.58 66.36-23.58 151.61s0 128.04 23.58 151.61c23.58 23.58 66.36 23.58 151.61 23.58s128.04 0 151.61-23.58c23.58-23.57 23.58-66.36 23.58-151.61s0-128.04-23.58-151.61c-23.57-23.58-66.36-23.58-151.61-23.58z"/><path d="m325.76 226.33c-28.72 0-52.08-23.36-52.08-52.08s23.36-52.08 52.08-52.08 52.08 23.36 52.08 52.08-23.36 52.08-52.08 52.08zm0-75.76c-13.05 0-23.67 10.62-23.67 23.67s10.62 23.67 23.67 23.67 23.67-10.62 23.67-23.67-10.62-23.67-23.67-23.67z" opacity=".5"/><path d="m382.57 377.84c-3.53 0-7.06-1.31-9.81-3.93l-42.95-41.03c-10.51-10.04-26.6-11.02-38.26-2.33-17.7 13.21-42.48 11.04-57.62-5.03l-50.14-53.23c-11.02-11.7-29.57-12.32-41.35-1.38l-15.35 14.26c-5.75 5.34-14.73 5.01-20.07-.74s-5.01-14.74.74-20.07l15.35-14.26c11.25-10.45 25.89-15.92 41.24-15.41 15.34.51 29.59 6.95 40.12 18.12l50.14 53.23c5.25 5.57 13.83 6.32 19.96 1.74 22.8-17.01 54.29-15.1 74.87 4.56l42.95 41.03c5.67 5.42 5.88 14.41.46 20.08-2.79 2.92-6.53 4.39-10.27 4.39z" opacity=".5"/></g></svg>