<svg viewBox="0 0 500 500" xmlns="http://www.w3.org/2000/svg"><g fill="#509f45"><path d="m267.78 298.08h-1.59c-26.19 0-52.37 0-78.56 0-34.17 0-68.34.02-102.51 0-20.6-.01-38.58-12.68-45.54-32.06-2.34-6.5-3.02-13.22-2.59-20.1.39-6.32 2.2-12.21 5.13-17.77 6.68-12.67 16.96-20.98 30.8-24.62 3.88-1.02 8-1.55 12.02-1.56 60.32-.1 120.63-.07 180.95-.07h1.9c-.66 1.45-1.29 2.9-1.88 4.36 2.88-6.64 6.39-12.94 10.46-18.82-.36.33-.94.53-1.42.68-.43.14-.94.04-1.41.04-51.56 0-103.12 0-154.68 0-12.1 0-24.2-.17-36.29.11-24.25.56-46.83 16.75-55.27 39.5-1.36 3.66-2.3 7.48-3.19 11.29-.51 2.18-.49 4.48-.73 6.72-.05.51-.18 1.01-.28 1.51v7.09c.38 2.46.68 4.94 1.14 7.39 4.93 26.03 26.63 46.34 52.98 49.54 2.67.32 5.37.47 8.06.48 26.19.04 52.38.04 78.56.03 4.37 0 8.74-.17 13.11-.16 28.36.04 56.72.1 85.07.15 4.07 0 8.13.05 12.19-.03.87-.02 1.5.16 2.04.63-3.85-5.58-7.2-11.54-9.98-17.8.49 1.15.99 2.31 1.52 3.46z" opacity=".5"/><path d="m420.12 211.75c-4.49-2.13-9.97-1.12-13.63 2.53-15.89 15.86-31.77 31.72-47.65 47.59-1.89 1.89-3.77 3.79-5.66 5.71l-5.18-5.17c-4.61-4.61-9.23-9.23-13.86-13.82-2.35-2.34-5.45-3.6-8.65-3.59-3.16.03-6.13 1.3-8.36 3.58-4.59 4.71-4.48 12.11.26 16.84 8.99 8.98 17.98 17.96 26.99 26.93 2.58 2.57 5.68 3.86 8.77 3.86s6.21-1.29 8.8-3.88l61.26-61.21c2.15-2.14 3.37-4.64 3.62-7.41.47-5.09-2.17-9.78-6.72-11.95z"/><path d="m481.92 247.42c-.04-1.6-.1-3.2-.2-4.76l-.02-.38-.08-.37c-.03-.16-.12-.53-.13-.68-.39-6.12-1.3-12.22-2.71-18.15-.47-1.95-.99-3.9-1.55-5.8l-.63-2.06c-2.31-7.23-5.44-14.4-9.32-21.3-11.25-20.04-27.4-35.61-48.01-46.27-12.19-6.3-25.52-10.3-39.65-11.9-1.36-.15-2.66-.21-3.92-.26-.53-.02-1.06-.04-1.6-.08-.1-.04-.21-.07-.31-.1l-.62-.2-11.43-.05h-.23c-.36.02-.73.04-1.09.06l-.27.02c-.89.1-1.77.19-2.66.28-2.33.24-4.75.49-7.16.84-23.15 3.42-43.72 13.17-61.14 28.99-6.08 5.52-11.64 11.83-16.53 18.76l-.44.56c-4.28 6.18-7.96 12.8-10.97 19.76-6.21 15.05-9.38 30.32-9.42 45.47v.17c0 15.46 3.3 31.13 9.85 46.66 2.88 6.5 6.39 12.76 10.43 18.61l.37.53.35.3c9.12 13 20.62 23.78 34.17 32.03 15.11 9.2 31.62 14.67 49.08 16.26.91.08 1.85.17 2.68.34l.36.08.37.02c.67.04 1.34.08 2.02.11h10.65s.12 0 .12 0c1.61-.07 3.22-.18 4.81-.32l.46-.04c6.43-.69 12.77-1.86 18.83-3.48 16.98-4.53 32.25-12.57 45.37-23.89 19.17-16.54 31.72-37.34 37.29-61.82.92-4.04 1.42-8.12 1.9-12.06.22-1.76.43-3.52.68-5.27l.1-.79c.09-1.52.16-3.09.2-4.66v-5.06s0-.11 0-.11zm-23.76.54c.52 24.49-8.58 47.69-25.62 65.34-17 17.61-39.85 27.5-64.35 27.84h-.04c-49.8 1.1-91.28-38.69-92.49-88.72-1.22-50.28 36.94-91.36 86.87-93.52 1.41-.06 2.82-.09 4.22-.09 23.54 0 45.58 8.58 62.46 24.41 17.89 16.77 28.44 40.37 28.96 64.74z"/></g></svg>