<svg viewBox="0 0 500 500" xmlns="http://www.w3.org/2000/svg"><g fill="#509f45"><path d="m325.62 252.56c30.54.09 55.14 24.83 55.05 55.38-.09 30.35-24.94 55.08-55.25 54.99-30.66-.09-55.17-24.97-55.05-55.89.12-29.97 25.07-54.58 55.25-54.48zm-.18 96.42c22.69.04 41.26-18.47 41.31-41.18.05-22.65-18.33-41.19-40.92-41.26-22.95-.07-41.49 18.27-41.56 41.1-.07 22.66 18.5 41.3 41.17 41.34z"/><path d="m325.25 301.71c2.53-4.41 5-8.77 7.52-13.09 1.9-3.26 5.16-4.56 8.43-3.45 3.21 1.09 5.19 4.23 4.63 7.62-.18 1.11-.69 2.21-1.25 3.2-4.18 7.38-8.39 14.73-12.62 22.08-3.14 5.45-9.24 5.64-12.65.42-1.65-2.52-3.28-5.04-4.86-7.6-2.09-3.4-1.76-6.82.82-9.27 2.49-2.37 5.74-2.51 9.11-.39.25.16.52.29.87.49z"/><path d="m412.4 295.62c-7.53-56.87-67.92-91.11-120.81-68.79-.17.07-.33.13-.49.19-2.65 1.11-9.14 3.99-15.25 8.16.03.02.05.03.08.04-.92.71-1.28.99-1.65 1.27-44.39 32.67-49.1 94.97-10.11 133.88 1.14 1.14 1.54 2.27 1.54 3.85-.05 25.39-.02 50.79-.05 76.18 0 2.34.38 4.45 2.14 6.13 2.41 2.3 5.51 2.55 8.96.63 15.61-8.73 31.23-17.46 46.8-26.26 1.48-.83 2.52-.79 3.97.03 15.37 8.69 30.78 17.32 46.2 25.92 1.19.67 2.5 1.32 3.83 1.51 4.46.63 7.77-2.64 7.77-7.57.01-25.55.02-51.1-.03-76.64 0-1.6.49-2.69 1.61-3.82 20.53-20.79 29.31-45.79 25.48-74.71zm-41.11 143.84c-.85-.46-1.56-.83-2.26-1.23-12.98-7.27-25.98-14.51-38.92-21.86-3.14-1.78-5.97-1.81-9.13-.02-12.73 7.24-25.54 14.36-38.31 21.52-.87.49-1.75.95-2.87 1.55v-56.57c30.57 16.92 60.96 16.91 91.5-.02v56.61zm-46.02-57.91c-40.96-.14-73.66-33.37-73.53-74.73.13-40.25 33.59-73.07 74.37-72.96 40.23.11 73.34 33.53 73.24 73.92-.09 40.8-33.35 73.91-74.09 73.77z"/><path d="m287.05 226.39c-2.18-1.58-4.4-3.08-6.66-4.5-8.38-5.26-17.32-9.43-26.78-12.58-.67-.22-1.32-.47-2.2-.78 39.04-18.78 57.53-62.37 47.03-101.67-9.85-36.84-42.53-63.45-80.07-65.21-38.9-1.83-73.87 21.27-87.16 57.76-6.43 17.64-7.12 35.65-1.89 53.68 7.32 25.22 23.2 43.46 46.74 55.46-1.02.35-1.74.6-2.46.85-51.51 17.32-86.96 65.95-86.88 119.18 0 5.69 2.53 8.26 8.13 8.26h101.42c2.01 0 4.02.07 6.02-.05 3.68-.21 6.37-2.98 6.51-6.58.14-3.68-2.18-6.58-5.83-7.16-1.13-.18-2.3-.18-3.46-.18-31.88 0-63.76 0-95.63 0h-2.91c1.69-34.88 21.99-74.43 62.48-94.07 36.51-17.71 72.29-15.71 107.34 3.48 1.69.92 3.37 1.89 5.06 2.89 6.11-4.17 12.59-7.06 15.25-8.16-1.49.53-2.6.41-4.05-.64zm-73.55-23.47c-40.52 0-73.61-33.14-73.64-73.73-.03-40.57 33.33-73.82 73.93-73.71 40.59.11 73.61 33.2 73.61 73.77 0 40.65-33.12 73.67-73.91 73.67z" opacity=".5"/></g></svg>