<svg viewBox="0 0 500 500" xmlns="http://www.w3.org/2000/svg"><g fill="#509f45"><path d="m169.88 186.27c1.18-28.69 13.37-54.51 40.75-71.68 29.91-18.76 68.98-13.75 93.84 11.41 34.2 34.63 34.69 90.68.9 125.48-15.17 15.62-33.86 23.91-55.67 23.66-25.86-.3-46.45-11.71-62-32.12-12.06-15.82-17.51-33.97-17.8-56.75zm139.67 4.74c-.24-17.92-4.96-32.42-15.12-44.98-22.17-27.42-60.07-29.3-84.71-4.28-24.54 24.92-25.26 67.65-1.56 93.37 20.23 21.96 50.67 25.69 74.28 8.6 18.43-13.34 26.46-32.19 27.12-52.71z"/><path d="m389.09 260.27c-26.13-.4-48.37-19.82-52.63-46.38-3.62-22.57 2.65-42.01 20.52-56.62 23.4-19.12 56.43-14.17 74.57 10.55 20.82 28.37 12.07 69.95-18.18 86.36-7.4 4.02-16.13 6.2-24.29 6.08zm33-55.89c-.13-9.78-2.51-17.61-7.65-24.58-11.97-16.22-33.85-17.72-47.79-3.25-12.78 13.27-13.83 35.81-2.32 50.22 10.18 12.75 25.88 16.42 39.39 8.8 12.49-7.04 17.68-18.49 18.37-31.19z" opacity=".5"/><path d="m57.14 199c.89-19.3 10.48-37.84 32.16-48.37 23.32-11.32 50.27-3.06 65.29 19.12 16.19 23.92 12.39 57.17-8.77 76.77-24.26 22.47-62.58 16.69-79.9-12.05-5.87-9.74-8.75-19.99-8.78-35.47zm86.55 3.93c.02-6.99-1.74-13.5-5.2-19.55-11.14-19.5-35.95-22.56-50.72-6.26-12.16 13.42-13.09 34.81-2.15 49.23 11.63 15.32 31.92 17.55 45.89 4.89 8.32-7.54 12.02-17.2 12.18-28.31z" opacity=".5"/><path d="m124.18 367.46c-.53-12.82 1.11-27.09 6.41-40.79 7.38-19.09 19.47-34.37 36.83-45.34 5.46-3.45 10.94-6.86 16.44-10.26 5.57-3.44 12-2.22 15.14 2.81 3.17 5.1 1.51 11.34-4.03 14.85-5.3 3.36-10.67 6.62-15.96 9.99-19.87 12.66-30.84 31.04-33.27 54.18-1.16 11.02-.5 22.22-.69 33.34-.07 3.99-1.81 7.11-5.31 9.07-3.59 2.02-7.26 1.87-10.74-.31-3.31-2.07-4.78-5.25-4.8-9.1-.03-5.56 0-11.13 0-18.46z"/><path d="m376.11 371.35c0 4.85.03 9.69 0 14.54-.05 6.18-4.48 10.76-10.35 10.78-5.91.02-10.43-4.48-10.49-10.66-.08-8.26.17-16.52-.06-24.77-.74-27.21-11.76-48.77-35.24-63.37-4.87-3.03-9.76-6.04-14.6-9.13-5.57-3.55-7.24-9.76-4.07-14.86 3.14-5.05 9.6-6.34 15.12-2.82 9.67 6.17 19.91 11.5 28.49 19.28 18.32 16.62 28.3 37.45 30.66 61.91.61 6.31.09 12.72.09 19.09h.46z"/><path d="m471.29 328.83c0 3.86.24 7.73-.06 11.57-.42 5.52-4.23 9.22-9.44 9.68-4.94.43-9.52-2.63-10.86-7.41-.33-1.18-.36-2.48-.38-3.72-.14-6.37.17-12.77-.44-19.09-1.32-13.58-7.74-24.24-19.47-31.51-3.28-2.03-6.59-4.01-9.8-6.14-4.77-3.17-6.21-9.19-3.48-13.98 2.7-4.73 8.6-6.86 13.51-4.11 9.94 5.56 19.74 11.37 26.91 20.65 10.06 13.02 14.07 27.83 13.5 44.06z" opacity=".5"/><path d="m28.72 329.99c-.67-13.58 1.84-26.42 8.79-38.25 4.62-7.86 10.65-14.41 18.26-19.45 3.96-2.63 8-5.14 12.07-7.59 5.28-3.17 11.53-1.74 14.63 3.22 3.07 4.91 1.5 11.19-3.69 14.53-3.32 2.14-6.7 4.17-10.02 6.31-12.54 8.07-18.53 19.84-19.15 34.5-.22 5.2-.02 10.41-.05 15.61-.04 6.69-4.26 11.2-10.45 11.22-6.16.02-10.38-4.53-10.41-11.21-.01-2.96 0-5.92 0-8.88z" opacity=".5"/><path d="m328.98 367.37c0 6.19.02 12.39 0 18.58-.03 6.1-4.28 10.58-10.09 10.72-5.91.14-10.6-4.28-10.66-10.46-.11-12.47-.11-24.95.03-37.43.07-6.27 4.65-10.56 10.64-10.41 5.89.15 10.04 4.52 10.07 10.69.03 6.1 0 12.21 0 18.31z"/><path d="m192.1 367.61c0 6.01.03 12.03-.01 18.04-.04 6.43-4.39 11.02-10.36 11.03-6 .01-10.39-4.57-10.41-10.98-.03-12.12-.03-24.23 0-36.35.02-6.49 4.28-10.96 10.35-10.98s10.37 4.45 10.42 10.93c.05 6.1.01 12.21 0 18.31z"/><path d="m432.25 329.39c0 3.5.04 7-.01 10.49-.09 5.49-4.08 9.76-9.47 10.21-5.43.45-10.07-3.04-11.06-8.46-.3-1.66-.32-3.39-.31-5.08.04-6.36-.18-12.75.33-19.08.44-5.54 5.52-9.21 11.02-8.75 5.43.46 9.43 4.71 9.5 10.18.05 3.5 0 7 0 10.49z" opacity=".5"/><path d="m88.54 329.33c0 3.41.04 6.82 0 10.22-.09 6.02-4.45 10.49-10.26 10.57-5.78.08-10.41-4.3-10.54-10.3-.15-6.9-.15-13.81 0-20.71.12-6.18 4.76-10.57 10.69-10.42 5.79.14 10.05 4.63 10.12 10.7.04 3.32 0 6.64 0 9.95z" opacity=".5"/></g></svg>