<svg viewBox="0 0 500 500" xmlns="http://www.w3.org/2000/svg"><g fill="#509f45"><path d="m164.76 373.3c-3.91 0-7.64-1.67-10.24-4.6l-24.36-27.4c-5.03-5.65-4.52-14.31 1.14-19.34s14.31-4.52 19.34 1.14l14.12 15.88 38.47-43.28c5.03-5.66 13.69-6.16 19.34-1.14 5.65 5.03 6.16 13.69 1.14 19.34l-48.71 54.8c-2.6 2.92-6.33 4.6-10.24 4.6z"/><path d="m396.48 199.77h-36.89c-41.9 0-59.26-.36-68.27-9.36-9-9-9.36-26.37-9.36-68.27v-25.4c-7.58-6.24-12.75-9.58-18.44-11.76-2.76-1.06-5.62-1.83-8.96-2.4v39.56c0 45.3 0 70.26 17.39 87.64 17.39 17.39 42.34 17.39 87.64 17.39h56.19c-.55-1.86-1.2-3.6-1.96-5.31-3.09-6.93-7.9-12.93-17.34-22.09z"/><path d="m446.36 268.81c-.04-25.35-.58-42.54-7.5-58.1-7.78-17.47-22.48-30.33-45.4-50.96l-72.31-65.08c-19.84-17.85-32.24-29.3-47.8-35.27s-32.51-5.76-59.33-5.76c-34.24 0-61.29-.03-82.4 2.8-21.49 2.88-38.88 8.94-52.56 22.62-14.23 14.23-20.22 32.44-22.95 55.08-.15.98-.3 2.33-.43 3.96-.03.33-.07.64-.11.97-.04.37-.05.74-.05 1.11-1.29 18.51-1.77 63.75-1.85 73.01 0 .1-.01.19-.01.29v73.06c0 34.06-.03 60.98 2.8 82 2.88 21.42 8.95 38.75 22.62 52.42s31 19.73 52.42 22.62c21.02 2.83 47.94 2.8 82 2.8h73.06c34.06 0 60.98.03 82-2.8 21.42-2.88 38.75-8.95 52.42-22.62 15.25-15.25 21.04-35.06 23.49-60.01.55-5.75 1.24-46.22 1.62-71.57.19-.91.3-1.86.3-2.83v-7.98c0-3.31 0-6.49 0-9.56 0-.11 0-.18 0-.18zm-27.4 11.23c-.05 18.4-1.79 78.21-1.79 78.21-2.22 22.55-6.99 34.71-15.6 43.32-7.73 7.73-18.32 12.36-36.69 14.83-18.77 2.52-43.52 2.55-78.35 2.55h-73.06c-34.83 0-59.57-.03-78.35-2.55-18.38-2.47-28.97-7.1-36.7-14.83s-12.36-18.32-14.83-36.69c-2.52-18.77-2.55-43.52-2.55-78.35v-73.06c0-.99-.11-1.95-.31-2.88-.57-25.1 2.64-73.73 2.64-73.73 2.41-19.46 7.09-30.47 15.06-38.43 7.72-7.72 18.34-12.36 36.82-14.83 18.87-2.52 43.75-2.55 78.76-2.55 20.68 0 32.14.11 40.55 1.54 3.34.57 6.2 1.34 8.96 2.4 5.69 2.18 10.86 5.52 18.44 11.76 5.38 4.43 11.98 10.31 20.85 18.3l72.31 65.08c9.01 8.11 15.94 14.4 21.36 19.65 9.44 9.16 14.26 15.15 17.34 22.09.76 1.71 1.41 3.45 1.96 5.31 2.98 10.02 3.17 23.32 3.17 51.38v1.5z" opacity=".5"/></g></svg>