<svg viewBox="0 0 500 500" xmlns="http://www.w3.org/2000/svg"><g fill="#509f45"><path d="m375.19 299.7c-10.2 0-20.41 0-30.61 0-8.46 0-13.52-5.32-13.12-13.76.59-12.45 9.85-23.72 22.36-26.03 18.46-3.4 36.99-6.4 55.55-9.21 9.61-1.45 16.97 5.3 17.12 14.99.07 4.39.05 8.77.02 13.16-.09 12.17-8.51 20.69-20.72 20.8-10.2.1-20.41.02-30.61.02v.03zm-29.96-13.73c.26.08.53.23.8.23 20.21.01 40.42.06 60.63-.02 3.83-.01 6.43-2.92 6.53-6.93.11-4.19 0-8.39.04-12.58.03-2.23-.75-3.09-3.13-2.64-5.15.97-10.34 1.71-15.51 2.57-12.41 2.06-24.83 4.03-37.21 6.23-7.09 1.26-12.16 6.96-12.16 13.14z" opacity=".5"/><path d="m124.78 299.66c-10.11 0-20.22.02-30.33 0-12.44-.03-21.07-8.66-21.07-21.05 0-3.81 0-7.63 0-11.44-.03-11.69 7.59-18.18 19.13-16.28 17.11 2.82 34.22 5.63 51.33 8.47 7.75 1.29 14.16 4.88 18.94 11.22 3.43 4.55 5.29 9.67 5.68 15.32.57 8.24-4.52 13.72-12.78 13.75-10.3.04-20.6 0-30.9.01zm30.04-13.43c0-.81.07-1.2 0-1.56-1.43-6.72-6.24-10.93-14.09-12.24-16.92-2.81-33.84-5.55-50.75-8.41-2.53-.43-3.3.45-3.26 2.81.07 3.62.01 7.25.02 10.87.01 6.07 2.43 8.53 8.44 8.53h56.63 3.02z" opacity=".5"/><path d="m93.62 324.29c.06 3.73-2.89 6.77-6.61 6.81-3.59.03-6.54-2.83-6.66-6.45-.12-3.77 2.7-6.8 6.45-6.92 3.65-.12 6.75 2.87 6.81 6.57z" opacity=".5"/><path d="m406.27 324.39c-.02-3.69 3.01-6.7 6.72-6.68 3.55.02 6.49 2.95 6.56 6.54.08 3.71-2.86 6.77-6.57 6.84-3.64.07-6.68-2.97-6.71-6.7z" opacity=".5"/><path d="m450.56 157.04c-6.08-.79-12.32-.49-18.53-.24-.79.03-1.57.06-2.36.09-.89.07-1.96.2-3.11.42-3.3.63-7.23 2.02-9.18 5.11-3.37 3.41-4.59 9.11-7.7 13.2-.61-.94-1.14-1.7-1.6-2.49-9.5-16.21-19-32.42-28.5-48.63-4.6-7.84-10.84-14-18.86-18.29-7.39-3.95-15.28-5.72-23.66-5.71-57.94.04-115.87 0-173.81.03-19.08 0-33.55 8.25-43.25 24.68-9.37 15.85-18.62 31.76-27.93 47.64-.55.93-1.14 1.83-1.92 3.07-.83-1.59-1.34-2.72-1.98-3.76-1.98-3.24-4.08-6.41-5.99-9.69 0 0 0-.01-.01-.02-.13-.22-.42-.65-.91-1.18-1.27-1.38-3.94-3.46-8.92-4.33-1.37-.24-2.92-.39-4.67-.41-.03 0-.07 0-.1 0-5.33-.09-10.67-.32-15.95.12-10.89.92-18.54 10.26-18 21.32.5 10.28 9.25 18.65 19.82 18.81 6.87.11 13.74.02 20.62.03.81 0 1.62.1 2.74.17-.51.94-.81 1.61-1.21 2.22-3.65 5.48-7.26 10.98-10.98 16.41-13.91 20.35-21.03 42.85-21.26 67.48-.14 15.94-.02 31.88-.02 47.82 0 10.43 3.99 19.05 11.66 26.08.89.82 1.53 2.37 1.56 3.61.16 6.1.03 12.22.08 18.32.09 11.7 8.82 20.47 20.48 20.55 8.97.06 17.94.04 26.92 0 11.82-.06 20.49-8.84 20.53-20.74.02-4.38 0-8.76 0-13.37h250.93c0 4.73-.02 9.21 0 13.68.06 11.68 8.8 20.39 20.53 20.42 8.78.03 17.56.02 26.34 0 12.28-.03 20.92-8.62 20.99-20.86.03-5.82.08-11.65-.03-17.47-.04-1.98.54-3.32 2.05-4.66 7.46-6.64 11.23-15.08 11.29-25.04.09-16.51.13-33.03-.02-49.54-.13-13.46-2.71-26.51-7.22-39.21-4.95-13.93-13.12-26.01-21.36-38.06-1.65-2.41-3.21-4.87-5.04-7.66 1.42-.07 2.34-.15 3.25-.15 6.87-.01 13.75.08 20.62-.03 10.07-.17 18.47-8.13 19.48-18.27.99-9.97-5.92-20.18-15.76-21.46zm-347.78 24.06c9.67-16.55 19.29-33.13 29.05-49.62 6.89-11.63 17.28-17.6 30.75-17.62 58.11-.1 116.23-.07 174.34-.02 13.95.01 24.51 6.15 31.57 18.24 9.43 16.14 18.87 32.26 28.3 48.39.47.8.9 1.62 1.62 2.9h-296.69c.4-.87.67-1.61 1.06-2.28zm-48.9 2.34c-4.15-.08-6.91-3.09-6.87-6.88.04-3.93 2.96-6.69 7.28-6.75 4.37-.06 8.77-.28 13.12.11 1.97.18 4.52 1.15 5.6 2.63 2.29 3.17 3.79 6.91 5.89 10.94-8.86 0-16.94.11-25.01-.05zm57.12 196.51c-.15 3.42-2.73 5.95-6.14 6-9.54.13-19.09.14-28.63 0-3.37-.05-6-2.73-6.12-6.05-.17-4.76-.04-9.53-.04-14.64h40.98c0 5 .16 9.85-.05 14.7zm60.73-28.43c3.12-4.04 6-7.78 8.88-11.51 3.67-4.76 7.31-9.54 11-14.29 4.39-5.66 10.16-8.35 17.36-8.33 19.47.07 38.94.02 58.41.01.51 0 1.05.04 1.54 0l15.35.05c1.69.02 3.44.02 5.18-.07 8.67-.45 15.16 3.02 20.22 10.08 5.28 7.36 11.06 14.36 16.61 21.52.57.73 1.1 1.49 1.86 2.54zm257.88 29.4c-.22 2.96-2.99 5.04-6.08 5.08-9.44.12-18.88.14-28.32.02-3.39-.04-6.11-2.58-6.28-5.93-.24-4.83-.06-9.69-.06-14.87h40.85c0 5.31.27 10.53-.1 15.7zm-.83-150.44c9.68 16.12 14.34 33.8 14.42 52.62.07 15.75.08 31.5.02 47.24-.05 12.84-8.54 21.29-21.41 21.32-24.62.05-49.25.02-73.87.08-1.77 0-2.94-.45-4.07-1.93-8.21-10.77-16.53-21.46-24.82-32.17-6.86-8.87-15.9-13.44-27.11-13.64-1.29-.02-2.58-.03-3.87-.03s-76.17-.08-76.17-.08c-11.64-.31-22.49 2.53-31.36 14.24-8.24 10.87-16.65 21.61-25.13 32.3-.69.87-2.45 1.26-3.72 1.27-23.57.05-47.15.02-70.72-.03-2.66 0-5.39.09-7.98-.41-9.35-1.78-15.95-9.65-16.24-19.5-.23-7.91-.17-15.84-.07-23.76.15-11.92-.1-23.88.82-35.75 1.36-17.55 7.75-33.52 17.5-48.15 5.5-8.26 11.12-16.43 16.53-24.75 1.25-1.92 2.58-2.59 4.82-2.58 20.14.08 40.28.05 60.41.05 82.08 0 164.16.01 246.23-.06 2.71 0 4.3.8 5.76 3.07 6.61 10.26 13.75 20.2 20.03 30.66zm17.94-47.13c-8.33.26-16.68.08-25.62.08 1.95-3.85 3.54-7.19 5.32-10.43 1.19-2.17 3.25-3.17 5.7-3.19 4.66-.04 9.32-.08 13.98.02 3.84.09 6.6 2.76 6.8 6.34.21 3.76-2.27 7.06-6.2 7.18z"/></g></svg>