<svg viewBox="0 0 500 500" xmlns="http://www.w3.org/2000/svg"><g fill="#509f45"><path d="m209.69 184.5h-80.62c-8.35 0-15.12-6.77-15.12-15.12s6.77-15.12 15.12-15.12h80.62c8.35 0 15.12 6.77 15.12 15.12s-6.77 15.12-15.12 15.12z"/><path d="m428.04 325.58h-52.45c-44.24 0-80.23-33.91-80.23-75.58s35.99-75.58 80.23-75.58h52.45c1.92 0 2.98 0 4.15.07 18.37 1.12 33.16 15.23 34.4 32.82.08 1.19.08 2.27.08 4.06v77.26c0 1.79 0 2.87-.08 4.06-1.24 17.59-16.03 31.7-34.4 32.82-1.18.07-2.23.07-4.15.07zm-52.46-120.93c-27.57 0-50 20.34-50 45.35s22.43 45.35 50 45.35h52.45c1.06 0 2.07 0 2.33-.02 3.22-.2 5.89-2.29 6.06-4.77 0-.2 0-1.08 0-1.93v-77.26c0-.85 0-1.73-.01-1.98-.17-2.43-2.84-4.53-6.08-4.72-.26-.02-1.26-.02-2.31-.02h-52.45z"/><path d="m270.15 426.36h-60.47c-39.2 0-67.52 0-90.48-3.09-26.28-3.53-44.11-11.23-57.84-24.95s-21.42-31.56-24.95-57.84c-3.09-22.96-3.09-51.28-3.09-90.48s0-67.52 3.09-90.48c3.53-26.28 11.23-44.11 24.95-57.84s31.56-21.42 57.84-24.95c22.96-3.09 51.28-3.09 90.48-3.09h60.47c39.2 0 67.52 0 90.48 3.09 26.28 3.53 44.11 11.23 57.84 24.95 20.59 20.59 25.72 48.64 27.32 87.22l-30.21 1.25c-1.53-36.97-6.55-55.15-18.49-67.1-19.18-19.19-55.19-19.19-126.94-19.19h-60.47c-71.74 0-107.75 0-126.94 19.19s-19.19 55.2-19.19 126.94 0 107.75 19.18 126.94c19.19 19.19 55.2 19.19 126.94 19.19h60.47c71.74 0 107.75 0 126.94-19.19 11.95-11.95 16.96-30.13 18.49-67.1l30.21 1.25c-1.6 38.58-6.73 66.63-27.32 87.22-13.72 13.73-31.56 21.42-57.84 24.95-22.96 3.09-51.28 3.09-90.48 3.09z" opacity=".5"/><path d="m370.93 270.15h-.18c-11.13 0-20.16-9.02-20.16-20.15s9.02-20.15 20.16-20.15h.18c11.13 0 20.16 9.02 20.16 20.15s-9.02 20.15-20.16 20.15z"/></g></svg>