<svg viewBox="0 0 500 500" xmlns="http://www.w3.org/2000/svg"><g fill="#509f45"><path d="m250 137.14c19.72 0 35.71-15.99 35.71-35.71s-15.99-35.71-35.71-35.71-35.71 15.99-35.71 35.71 15.99 35.71 35.71 35.71z"/><path d="m116.33 137.14c19.72 0 35.71-15.99 35.71-35.71s-15.99-35.71-35.71-35.71-35.71 15.99-35.71 35.71 15.99 35.71 35.71 35.71z"/><path d="m250 285.53c19.72 0 35.71-15.99 35.71-35.71s-15.99-35.71-35.71-35.71-35.71 15.99-35.71 35.71 15.99 35.71 35.71 35.71z" opacity=".5"/><path d="m383.67 137.14c19.72 0 35.71-15.99 35.71-35.71s-15.99-35.71-35.71-35.71-35.71 15.99-35.71 35.71 15.99 35.71 35.71 35.71z"/><path d="m383.67 285.53c19.72 0 35.71-15.99 35.71-35.71s-15.99-35.71-35.71-35.71-35.71 15.99-35.71 35.71 15.99 35.71 35.71 35.71z"/><path d="m116.33 285.53c19.72 0 35.71-15.99 35.71-35.71s-15.99-35.71-35.71-35.71-35.71 15.99-35.71 35.71 15.99 35.71 35.71 35.71z"/><path d="m250 434.28c19.72 0 35.71-15.99 35.71-35.71s-15.99-35.71-35.71-35.71-35.71 15.99-35.71 35.71 15.99 35.71 35.71 35.71z"/><path d="m383.67 434.28c19.72 0 35.71-15.99 35.71-35.71s-15.99-35.71-35.71-35.71-35.71 15.99-35.71 35.71 15.99 35.71 35.71 35.71z"/><path d="m116.33 434.28c19.72 0 35.71-15.99 35.71-35.71s-15.99-35.71-35.71-35.71-35.71 15.99-35.71 35.71 15.99 35.71 35.71 35.71z"/></g></svg>