<svg viewBox="0 0 500 500" xmlns="http://www.w3.org/2000/svg"><g fill="#509f45"><path d="m162.03 300.06c-5.31 0-10.61-2.02-14.66-6.07-8.1-8.1-8.1-21.23 0-29.32l140.54-140.54h-67.23c-11.45 0-20.73-9.28-20.73-20.73s9.28-20.73 20.73-20.73h117.29c8.39 0 15.95 5.05 19.16 12.8s1.44 16.67-4.49 22.6l-175.93 175.93c-4.05 4.05-9.35 6.07-14.66 6.07z"/><path d="m279.32 417.34h-117.29c-8.39 0-15.95-5.05-19.16-12.8s-1.44-16.67 4.49-22.6l175.93-175.93c8.1-8.1 21.22-8.1 29.32 0s8.1 21.23 0 29.32l-140.54 140.54h67.23c11.45 0 20.73 9.28 20.73 20.73s-9.28 20.73-20.73 20.73z" opacity=".5"/></g></svg>