<svg viewBox="0 0 500 500" xmlns="http://www.w3.org/2000/svg"><path d="m365.94 126.04-74.86-33.24c-26.23-11.45-56.04-11.45-82.27 0l-74.79 33.24c-29.65 12.02-49.29 40.55-49.92 72.54v102.91c.63 31.99 20.26 60.53 49.92 72.54l74.86 33.24c12.84 5.62 26.71 8.51 40.73 8.51h.78c14.02 0 27.89-2.89 40.73-8.51l74.86-33.24c29.65-12.02 49.29-40.55 49.92-72.54v-102.91c-.63-32-20.28-60.54-49.95-72.54zm-146.73-9.92c19.63-8.55 41.93-8.55 61.55 0l74.86 33.24c4.85 2.16 9.43 4.91 13.61 8.18l-42.69 18.99-121.68-54.07 14.34-6.35zm-74.86 33.25 29.08-12.9 121.66 54.05-24.69 10.94c-13.1 5.46-27.84 5.46-40.93 0l-98.73-43.91c4.2-3.27 8.77-6.02 13.63-8.18zm0 201.34c-20.36-8.01-34.01-27.35-34.72-49.22v-102.91c.04-7.06 1.61-14.03 4.61-20.42l104.92 46.63c5.78 2.46 11.85 4.17 18.07 5.1v159.22c-6.19-.94-12.24-2.66-18-5.1l-74.87-33.31zm245.99-49.21c-.72 21.87-14.39 41.22-34.76 49.22l-74.86 33.24c-5.76 2.46-11.81 4.17-18 5.1v-159.21c6.21-.93 12.29-2.64 18.07-5.1l104.92-46.63c3 6.39 4.57 13.36 4.61 20.42z" fill="#509f45"/></svg>