<svg viewBox="0 0 500 500" xmlns="http://www.w3.org/2000/svg"><path d="m314.05 78c-15.27-23.54-36.98-35.47-66.35-36.45h-.35s-.35.05-.35.05c-1.06.18-2.31.35-3.69.55-3.8.54-8.54 1.2-13.24 2.42-12.24 3.17-23.36 9.76-33.07 19.59-14.5 14.69-22.38 32.36-23.43 52.51-.26 4.99.34 9.96.92 14.76.1.8.19 1.6.29 2.4.21 1.78.4 3.57.6 5.36.86 7.73 1.75 15.72 3.23 23.53 3.64 19.25 11.97 36.5 24.73 51.28 9.71 11.25 20.37 18.27 32.57 21.48 4.99 1.31 9.91 1.97 14.74 1.97 12.55 0 24.53-4.42 35.74-13.22 14.38-11.29 24.79-27 30.92-46.68 2.37-7.61 3.69-15.56 4.97-23.24l.3-1.8c1.57-9.39 3.18-19.11 3.85-28.81 1.1-15.95-3.06-31.32-12.37-45.67zm-19.05 8.93c8.15 11.68 11.66 24.03 10.43 36.72-.63 6.47-1.62 13.05-2.57 19.42-.61 4.08-1.25 8.3-1.78 12.48-1.35 10.48-4.61 20.61-9.7 30.13-6.97 13.03-14.8 21.46-24.62 26.53-13.34 6.88-26.42 5.62-38.88-3.75-9.53-7.16-16.98-17.35-23.46-32.06-4.72-10.71-6.19-22.01-7.75-33.97l-.13-1.01c-.67-5.13-1.21-10.23-1.74-15.16-.21-2.02-.42-4-.64-5.9 1.18-22.23 10.23-38.41 27.68-49.45 24.91-15.77 55.69-9.03 73.17 16.03z" fill="#509f45"/><path d="m249.99 300.19s.03.05.04.08c0-.01.01-.02.02-.04.49-1.07 1.06-2.02 1.61-2.95.27-.45.53-.9.79-1.35.96-1.74 1.92-3.48 2.9-5.27h-10.68c.33.58.67 1.17 1 1.75 1.44 2.52 2.94 5.13 4.33 7.78z" fill="none"/><path d="m253.05 340.87c-1.02-3.93-2.03-7.86-3.05-11.8-5.74 22.23-12.05 46.7-18.16 70.65-.02.13.05.5.13.65 4.74 7.66 9.68 15.42 14.46 22.92l.95 1.49c.86 1.35 1.73 2.68 2.63 4.05 1.36-2.15 2.72-4.29 4.08-6.44 4.24-6.7 8.63-13.63 13.07-20.38.98-1.49 1.13-2.52.63-4.42-4.97-18.89-9.94-38.12-14.74-56.71z" fill="none"/><g fill="#509f45"><path d="m288.93 396.02c-.18-.47-.33-1-.49-1.64l-4.86-18.83c-5.34-20.7-10.68-41.41-16.05-62.1-.27-1.03-.19-1.65.32-2.54 3.18-5.54 6.35-11.19 9.42-16.66 1.39-2.48 2.78-4.95 4.17-7.43 2.37-4.2 2.61-8.52.67-11.85s-5.81-5.25-10.62-5.26c-4.83-.01-9.67 0-14.5 0h-9.89v.24c-1.2 0-2.39-.01-3.59-.02-5.48-.04-11.15-.07-16.74.09-3.84.11-7.18 2.04-8.95 5.16-1.82 3.21-1.75 7.21.2 10.7 1.2 2.14 2.38 4.29 3.55 6.44 3 5.49 6.11 11.16 9.49 16.59 1.41 2.27 1.61 4.1.79 7.23-5.44 20.67-10.89 41.7-16.16 62.04l-5.22 20.13c-.93 3.58-.39 6.88 1.59 9.79 1.69 2.48 3.33 5.09 4.91 7.61.72 1.15 1.44 2.29 2.17 3.43 2.04 3.2 4.08 6.4 6.11 9.6 5.25 8.24 10.67 16.76 16.06 25.11 1.85 2.87 5.1 4.59 8.67 4.6h.02c3.66 0 7-1.77 8.92-4.72 2.63-4.04 5.38-8.37 8.41-13.25 1.63-2.62 3.25-5.26 4.86-7.9 2.23-3.65 4.54-7.42 6.86-11.09 2.54-4.01 5.3-8.29 8.27-12.35 2.86-3.91 3.39-8.33 1.59-13.13zm-39.21 45.11-2.72-4.14c-.61-.93-1.21-1.84-1.8-2.73-1.29-1.95-2.53-3.82-3.73-5.71l-.95-1.49c-4.79-7.52-9.73-15.29-14.51-23.01-1.05-1.71-1.44-4.13-.95-6.04 6.94-27.22 14.14-55.09 20.49-79.69.2-.79.54-1.42.79-1.88.06-.11.12-.22.17-.33l.89-1.87 5.39-.29.9 2.41c.07.18.14.37.22.55.21.53.46 1.13.63 1.82 1.76 6.8 3.52 13.6 5.27 20.4 4.8 18.59 9.76 37.81 14.73 56.68 1 3.79.52 6.89-1.55 10.04-4.4 6.71-8.78 13.61-13 20.28-1.83 2.89-3.66 5.78-5.5 8.66-.36.56-.75 1.06-1.16 1.58-.19.24-.4.51-.63.82l-3 3.95zm17.46-157.47-4.58 8.34c-1.38 2.51-2.7 4.91-4.02 7.31-.29.52-.59 1.03-.89 1.54-.48.81-.94 1.58-1.28 2.32-1.28 2.76-3.39 4.16-6.26 4.16-.03 0-.06 0-.09 0-2.85-.03-4.89-1.3-6.26-3.9-1.33-2.53-2.79-5.09-4.21-7.55-.71-1.24-1.42-2.48-2.12-3.72-.38-.68-.73-1.37-1.14-2.18-.19-.38-.39-.78-.62-1.23l-2.61-5.1h34.08z"/><path d="m194.68 276.89c-1.32-4.13-5.28-6.99-9.85-7.1-2.97-.07-5.96-.07-8.86-.06-2.28 0-4.56 0-6.83-.03-16.23-.23-31.31 3.34-44.84 10.63-13.72 7.39-24.95 17.83-33.37 31.03-9.46 14.82-14.17 31.87-14 50.69.1 11.76.08 23.73.05 35.3-.01 5.19-.02 10.37-.02 15.56v8.14 18.98c0 6.3 3.47 9.11 6.4 10.35 1.39.59 2.83.88 4.24.88 1.95 0 3.84-.56 5.51-1.66 2.95-1.95 4.72-5.38 4.73-9.16.02-9.79.02-19.58.02-29.37v-13.16c0-3.76 0-7.51 0-11.27 0-9.05-.01-18.4.04-27.59.02-2.7.1-6.22.65-9.59 2.67-16.56 10.1-30.41 22.07-41.17 11.41-10.25 24.59-16.05 39.18-17.23 4.97-.4 10.12-.42 15.1-.44 3.1-.01 6.31-.03 9.49-.13 2.38-.08 4.74-.81 6.46-2.02 3.68-2.57 5.23-7.22 3.84-11.57z" opacity=".5"/><path d="m423.04 416.58c.03-17.99.05-38.37 0-58.23-.01-3.63-.24-7.11-.68-10.35-2.07-15.26-7.5-29.03-16.14-40.94-11.16-15.38-26.09-26.41-44.38-32.78-14.15-4.93-28.67-4.74-42.71-4.55-1.83.02-3.65.05-5.48.06-2.7.02-5.18 1.07-6.98 2.96-1.95 2.04-2.95 4.83-2.83 7.86.23 5.78 4.53 9.84 10.46 9.89 2.22.02 4.46 0 6.62-.04 3.96-.05 8.05-.1 11.99.14 5.64.34 11.61.78 17.16 2.14 30.57 7.48 52 34.81 52.11 66.45.03 8.23.03 16.46.02 24.7v18.89c0 .97.14 1.86.27 2.65-.13.36-.22.78-.22 1.26l-.02 7.75c-.03 8.9-.06 18.11.03 27.18.05 4.99 4.15 9.11 9.53 9.59.28.03.56.04.85.04 2.53 0 5.18-.98 7.09-2.64 1.69-1.48 2.68-3.41 2.78-5.44.27-5.83.2-11.72.13-17.42-.03-2.13-.05-4.27-.06-6.4.02-.09.05-.17.07-.26.18-.68.4-1.53.4-2.52z" opacity=".5"/></g></svg>