<svg viewBox="0 0 500 500" xmlns="http://www.w3.org/2000/svg"><g fill="#509f45"><path d="m250 243.92c5.12 0 9.27 4.17 9.27 9.27 0 4.68 3.78 8.44 8.43 8.44s8.44-3.76 8.44-8.44c0-11.45-7.44-21.09-17.71-24.62v-4.78c0-4.67-3.77-8.43-8.43-8.43s-8.43 3.76-8.43 8.43v4.78c-10.27 3.53-17.69 13.17-17.69 24.62 0 14.41 11.69 26.14 26.12 26.14 5.12 0 9.27 4.17 9.27 9.27s-4.15 9.27-9.27 9.27-9.25-4.17-9.25-9.27c0-4.66-3.81-8.43-8.44-8.43s-8.43 3.77-8.43 8.43c0 11.45 7.42 21.09 17.69 24.62v4.77c0 4.68 3.77 8.45 8.43 8.45s8.43-3.77 8.43-8.45v-4.77c10.27-3.53 17.71-13.17 17.71-24.62 0-14.41-11.71-26.14-26.14-26.14-5.1 0-9.25-4.16-9.25-9.27s4.15-9.27 9.25-9.27z"/><path d="m318.85 140.5c0-5.55-5.15-10.04-11.48-10.04h-114.73c-6.33 0-11.48 4.49-11.48 10.04s5.15 10.01 11.48 10.01h114.73c6.33 0 11.48-4.46 11.48-10.01z"/><path d="m374.72 108.74c-1.78-25.26-19.63-46.15-43.38-52.47-2-1.24-4.34-1.97-6.86-1.97h-148.96c-2.52 0-4.87.73-6.86 1.97-23.75 6.32-41.6 27.21-43.38 52.47-.1.64-.16 1.3-.16 1.97v276.41c0 7.07 1.26 13.85 3.56 20.12.66 1.79 1.4 3.55 2.22 5.25 1.24 2.56 2.65 5.02 4.23 7.36 8.96 13.25 23.19 22.66 39.66 25.18 2.91.45 5.88.68 8.91.68h132.59c3.03 0 6.01-.23 8.91-.68 16.47-2.52 30.7-11.93 39.66-25.18 1.58-2.34 3-4.8 4.23-7.36.82-1.71 1.57-3.46 2.22-5.25 2.3-6.28 3.56-13.06 3.56-20.12v-276.42c0-.67-.07-1.32-.16-1.97zm-191.01 310.86c-7.94 0-15.22-2.86-20.88-7.61-7.1-5.96-11.63-14.9-11.63-24.88v-274.22c0-17.92 14.57-32.49 32.5-32.49h132.59c17.94 0 32.5 14.57 32.5 32.49v274.22c0 9.98-4.52 18.92-11.63 24.88-5.65 4.74-12.94 7.61-20.88 7.61h-132.59z" opacity=".5"/></g></svg>