<svg viewBox="0 0 500 500" xmlns="http://www.w3.org/2000/svg"><g fill="#509f45"><path d="m146.44 427.54h207.13c9.86 0 14.79 4.93 14.79 14.79s-4.93 14.79-14.79 14.79h-207.13c-9.86 0-14.79-4.93-14.79-14.79s4.93-14.79 14.79-14.79z"/><path d="m383.15 205.62c0-73.54-59.62-133.15-133.15-133.15s-133.15 59.62-133.15 133.15c0 54.62 43.7 125.82 133.15 211.09 89.45-85.28 133.15-156.47 133.15-211.09zm-133.15 251.51c-108.51-98.62-162.74-182.48-162.74-251.51 0-89.88 72.86-162.74 162.74-162.74s162.74 72.86 162.74 162.74c0 69.03-54.24 152.89-162.74 251.51z"/><path d="m250 250c24.51 0 44.38-19.87 44.38-44.38s-19.87-44.38-44.38-44.38-44.38 19.87-44.38 44.38 19.87 44.38 44.38 44.38zm0 29.59c-40.86 0-73.97-33.12-73.97-73.97s33.12-73.97 73.97-73.97 73.97 33.12 73.97 73.97-33.12 73.97-73.97 73.97z" opacity=".5"/></g></svg>