<svg viewBox="0 0 500 500" xmlns="http://www.w3.org/2000/svg"><g fill="none" stroke="#509f45" stroke-miterlimit="133.33" stroke-width="29.32"><path d="m245.44 146.91c19.81-35.54 29.71-53.31 44.52-53.31s24.71 17.77 44.52 53.31l5.13 9.19c5.63 10.1 8.44 15.15 12.83 18.48s9.85 4.57 20.79 7.04l9.95 2.25c38.47 8.7 57.7 13.06 62.28 27.77s-8.54 30.05-34.76 60.71l-6.79 7.94c-7.45 8.71-11.18 13.07-12.85 18.46-1.68 5.39-1.11 11.2.01 22.83l1.03 10.59c3.96 40.92 5.95 61.38-6.03 70.47s-29.99.8-66.01-15.78l-9.32-4.29c-10.24-4.71-15.35-7.07-20.78-7.07s-10.54 2.36-20.78 7.07l-9.32 4.29c-36.02 16.58-54.03 24.88-66.01 15.78-11.98-9.09-10-29.55-6.03-70.47l1.03-10.59c1.13-11.63 1.69-17.44.01-22.83s-5.4-9.75-12.85-18.46l-6.78-7.94c-26.23-30.67-39.34-46-34.76-60.71 4.58-14.72 23.81-19.07 62.28-27.77l9.95-2.25c10.93-2.47 16.4-3.71 20.79-7.04s7.2-8.38 12.83-18.48l5.13-9.19z"/><g stroke-linecap="round"><path d="m55.38 328.2c21.81-17.18 50.78-23.52 78.2-17.09" opacity=".5"/><path d="m55.38 220.68c19.55-9.77 25.21-8.59 39.1-9.77" opacity=".5"/><path d="m53.64 125.05 4.07-2.38c43.12-25.25 88.8-32.06 131.86-19.65l4.06 1.17" opacity=".5"/></g></g></svg>