<svg viewBox="0 0 500 500" xmlns="http://www.w3.org/2000/svg"><g fill="#509f45"><path d="m172.44 174.69c0-24.74-.19-49.48.11-74.21.09-7.11-2.22-9.86-9.52-9.8-35.27.24-70.55.25-105.82 0-7.35-.05-9.56 2.75-9.47 9.82.3 25.26.13 50.53.09 75.79 0 .58.03 1.24.07 1.92.11 2.05.21 4.27-.7 4.9h11.75v-81.06h102.49v81.06h11.02c0-2.38 0-4.9 0-7.43v-.98z"/><path d="m477.54 310.27c-2.07-2.83-3.99-6.31-4.44-9.69-3.24-24.42-28.08-47.09-52.78-47.08-5.48 0-7.06-1.82-8.14-6.77-5-22.86-10.28-45.66-15.81-68.4-1.1-4.53-.56-6.84 3.7-9.44 8.18-4.99 11.27-14.3 8.95-23.4-2.24-8.81-9.83-15.43-19.47-15.67-16.57-.41-33.17-.34-49.74-.01-2.18.04-6.22 2.82-6.18 4.24.45 14.7-3.45 29.45 4.11 43.98 17.56 33.73 20.55 69.2 8.77 105.55-5.24 16.16-17.54 25.12-34.17 25.43-9.74.18-19.48.2-29.22-.04-13.38-.33-20.99-10.25-18.21-23.46 2.27-10.81 5.03-21.53 6.91-32.4 4.73-27.46-14.01-49.76-41.8-50.07-9.48-.11-18.95-.01-28.43 0-5.39 0-10.78 0-16.02 0q-1.58-17.06-13.15-19.93h-11.02v.48h-102.47v-.48h-11.75c-8.13 5.67-4.21 13.89-5.06 21.04-.85 7.13 2.38 9.82 9.62 9.62 14.42-.41 28.85-.12 43.55-.12.09 1.71.36 2.75.16 3.69-3.37 15.15-6.56 30.34-10.48 45.34-.57 2.18-4.52 4.53-7.2 4.95-36.88 5.78-64.69 35.31-67.45 72.05-.72 9.6.56 11.28 10.15 11.09 4.95-.1 7.23 1.21 8.77 6.34 8.25 27.46 31.34 44.66 59.11 44.7 28.34.03 51.19-16.91 59.73-44.96 1.46-4.8 3.45-6.05 8.14-6.04 67.65.13 135.3.15 202.96-.01 5.32-.01 7.07 1.69 7.91 6.93 4.11 25.6 23.26 45.31 48.17 50.3 25.79 5.17 50.86-5.38 64.92-27.31 13.87-21.63 12.73-49.46-2.62-70.45zm-389.88 80.87c-23.97-.33-46.36-18.73-48.04-40.18 7.88 0 15.72-.23 23.52.16 1.94.1 4.11 1.87 5.61 3.42 10.73 11.13 24.69 11.21 35.42.48 2.1-2.1 5.56-3.71 8.5-3.9 8.08-.53 16.22-.18 24.95-.18-2.39 22.57-25.28 40.54-49.96 40.2zm67.36-51.38h-132.96c-1.1-32.81 31.94-62.2 68.86-61.73 33.65.42 65.9 31.26 64.09 61.73zm15.94.46c-1.03 0-2.05-.26-3.58-.46-6.2-41.34-30.21-65.63-72.02-73.07 3.84-16.93 7.57-33.54 11.37-50.13 2.86-12.49 2.06-13.52-10.97-13.53-12.63 0-25.27.12-37.9-.17-1.66-.04-3.28-2.16-4.91-3.32 1.65-1.46 3.3-4.19 4.96-4.2 37.89-.17 75.79-.04 113.68.05.49 0 .98.33 2.06.71.2 1.17.61 2.62.67 4.09q.47 13.44 14.3 13.45c13.69 0 27.37-.13 41.06.06 21.68.29 35.51 17.25 31.44 38.58-2.07 10.84-4.75 21.56-6.92 32.39-3.7 18.52 8.87 34.47 27.7 35 10.26.29 20.53.21 30.79.01 21.34-.4 37.74-12.54 44.18-32.96 11.92-37.84 9.52-75-8.08-110.44-5.85-11.78-4.92-23.11-4.8-35.73 15.69 0 30.89-.54 46 .44 3.15.21 7.41 5.62 8.52 9.41 1.56 5.34-2.18 10.23-7.65 11-8.62 1.21-8.22 5.53-6.61 12.2 6.72 27.85 12.97 55.82 19.44 83.73 2.33 10.04 2.57 9.97 12.45 7.37 2.94-.78 6.41-.94 9.33-.18 16.17 4.23 28.14 13.77 35.13 29.15 2.65 5.83 2.25 9.87-4.8 12.93-23.63 10.27-46.94 21.28-70.42 31.87-2.31 1.04-5.02 1.68-7.55 1.69-68.95.09-137.91.07-206.86.05zm267.11 6.95c.17 6.53-5.25 12.21-11.8 12.35-6.72.15-12.21-5.06-12.35-11.7-.14-6.58 5.19-12.27 11.7-12.48 6.32-.21 12.28 5.45 12.45 11.82zm34.21 25.78c-10.7 18.38-31.83 28.61-52.09 25.21-20.68-3.47-38.55-19.81-41.92-38.86-.37-2.07 1.15-5.75 2.89-6.7 6.62-3.64 13.68-6.47 21.39-9.97 1.9 16.94 7.48 24.93 18.35 27.15 10.1 2.06 20.11-2.35 24.93-10.99 5.7-10.22 3.57-19.26-8.06-32.23 8.69-4 17.08-8.07 25.7-11.58 1.36-.55 4.4.92 5.59 2.35 12.16 14.59 13.42 38.11 3.23 55.63z" opacity=".5"/></g></svg>