<svg viewBox="0 0 500 500" xmlns="http://www.w3.org/2000/svg"><g fill="#509f45"><circle cx="289.11" cy="226.54" r="23.46"/><circle cx="367.32" cy="226.54" r="23.46"/><circle cx="289.11" cy="304.75" r="23.46"/><circle cx="367.32" cy="304.75" r="23.46"/><circle cx="132.68" cy="304.75" r="23.46"/><circle cx="210.89" cy="304.75" r="23.46"/><circle cx="132.68" cy="382.96" r="23.46"/><circle cx="210.89" cy="382.96" r="23.46"/><circle cx="289.11" cy="382.96" r="23.46"/><path d="m406.43 62.29h-312.86c-34.5 0-62.57 28.07-62.57 62.57v281.57c0 34.5 28.07 62.57 62.57 62.57h312.86c34.5 0 62.57-28.07 62.57-62.57v-281.57c0-34.5-28.07-62.57-62.57-62.57zm-312.86 31.28h312.86c17.25 0 31.29 14.03 31.29 31.29v15.64h-375.43v-15.64c0-17.25 14.03-31.29 31.29-31.29zm312.86 344.14h-312.86c-17.25 0-31.29-14.03-31.29-31.29v-234.64h375.43v234.64c0 17.25-14.03 31.29-31.29 31.29z" opacity=".5"/><path d="m131.02 119.14c-8.67 0-15.7-7.03-15.7-15.7v-62.81c0-8.67 7.03-15.7 15.7-15.7s15.7 7.03 15.7 15.7v62.81c0 8.67-7.03 15.7-15.7 15.7z"/><path d="m368.98 119.14c-8.67 0-15.7-7.03-15.7-15.7v-62.81c0-8.67 7.03-15.7 15.7-15.7s15.7 7.03 15.7 15.7v62.81c0 8.67-7.03 15.7-15.7 15.7z"/></g></svg>