<svg viewBox="0 0 500 500" xmlns="http://www.w3.org/2000/svg"><g fill="#509f45"><path d="m250 449.34c-26.91 0-53.01-5.27-77.6-15.67-23.74-10.04-45.06-24.41-63.36-42.71s-32.67-39.62-42.71-63.36c-10.4-24.59-15.67-50.69-15.67-77.6s5.27-53.01 15.67-77.6c10.04-23.74 24.41-45.06 42.71-63.36s39.62-32.67 63.36-42.71c24.58-10.4 50.69-15.67 77.6-15.67s53.01 5.27 77.6 15.67c23.74 10.04 45.06 24.41 63.36 42.71s32.67 39.62 42.71 63.36c10.4 24.59 15.67 50.69 15.67 77.6s-5.27 53.01-15.67 77.6c-10.04 23.74-24.41 45.06-42.71 63.36s-39.62 32.67-63.36 42.71c-24.59 10.4-50.69 15.67-77.6 15.67zm0-368.78c-93.43 0-169.44 76.01-169.44 169.44s76.01 169.44 169.44 169.44 169.44-76.01 169.44-169.44-76.01-169.44-169.44-169.44z"/><path d="m318.39 323.61c-2.61 0-5.24-.68-7.64-2.11l-75.15-44.83c-4.52-2.7-7.29-7.57-7.29-12.84v-96.62c0-8.26 6.69-14.95 14.95-14.95s14.95 6.69 14.95 14.95v88.13l67.86 40.48c7.09 4.23 9.41 13.41 5.18 20.5-2.8 4.69-7.76 7.29-12.85 7.29z" opacity=".4"/></g></svg>