<svg viewBox="0 0 500 500" xmlns="http://www.w3.org/2000/svg"><g fill="#509f45"><path d="m142.39 309.18c-38.57 0-69.95-31.38-69.95-69.94s31.38-69.94 69.95-69.94 69.94 31.38 69.94 69.94-31.38 69.94-69.94 69.94zm0-107.6c-20.77 0-37.66 16.9-37.66 37.66s16.9 37.66 37.66 37.66 37.66-16.9 37.66-37.66-16.9-37.66-37.66-37.66z"/><path d="m310.69 369.48c-3.05 0-6.14-.86-8.88-2.67l-114.51-75.58c-7.44-4.91-9.49-14.92-4.58-22.36s14.93-9.49 22.36-4.58l114.51 75.58c7.44 4.91 9.49 14.92 4.58 22.36-3.1 4.7-8.25 7.25-13.49 7.25z" opacity=".5"/><path d="m198.37 230.66c-5.24 0-10.38-2.55-13.49-7.25-4.91-7.44-2.86-17.45 4.58-22.36l114.51-75.58c7.44-4.91 17.45-2.86 22.36 4.58s2.86 17.45-4.58 22.36l-114.51 75.58c-2.74 1.81-5.82 2.67-8.88 2.67z" opacity=".5"/><path d="m357.61 459.84c-38.57 0-69.94-31.38-69.94-69.94s31.38-69.94 69.94-69.94 69.95 31.38 69.95 69.94-31.38 69.94-69.95 69.94zm0-107.61c-20.77 0-37.66 16.9-37.66 37.66s16.9 37.66 37.66 37.66 37.66-16.9 37.66-37.66-16.9-37.66-37.66-37.66z"/><path d="m357.61 180.05c-38.57 0-69.94-31.38-69.94-69.94s31.38-69.94 69.94-69.94 69.95 31.38 69.95 69.94-31.38 69.94-69.95 69.94zm0-107.6c-20.77 0-37.66 16.9-37.66 37.66s16.9 37.66 37.66 37.66 37.66-16.9 37.66-37.66-16.9-37.66-37.66-37.66z"/></g></svg>