<svg viewBox="0 0 500 500" xmlns="http://www.w3.org/2000/svg"><g fill="#509f45" fill-rule="evenodd"><path d="m217.95 121.4h-16.04c-8.87 0-16.07 7.2-16.07 16.07s7.2 16.07 16.07 16.07h16.11l.03 16.11c.02 8.87 7.23 16.06 16.11 16.04 8.87-.02 16.06-7.23 16.04-16.11l-.03-16.04h16.04c8.87 0 16.07-7.2 16.07-16.07s-7.2-16.07-16.07-16.07h-16.11l-.03-16.11c-.02-8.87-7.23-16.06-16.11-16.04-8.87.02-16.06 7.23-16.04 16.11z"/><path d="m394.74 137.48v-64.3c0-12.8-5.08-25.06-14.13-34.1-9.03-9.05-21.3-14.13-34.1-14.13h-225.05c-12.8 0-25.06 5.08-34.1 14.13-9.05 9.03-14.13 21.3-14.13 34.1v353.65c0 12.8 5.08 25.06 14.13 34.1 9.03 9.05 21.3 14.13 34.1 14.13h225.03c8.87 0 16.07-7.2 16.07-16.07s-7.2-16.07-16.07-16.07h-225.03c-4.26 0-8.36-1.69-11.37-4.71-3.02-3.01-4.71-7.11-4.71-11.37v-353.66c0-4.26 1.69-8.36 4.71-11.37 3.01-3.02 7.11-4.71 11.37-4.71h225.05c4.26 0 8.36 1.69 11.37 4.71 3.02 3.01 4.71 7.11 4.71 11.37v64.3c0 8.87 7.2 16.07 16.07 16.07s16.07-7.2 16.07-16.07z" opacity=".5"/><path d="m362.3 221.16c-18.63 6.66-31.99 24.48-31.99 45.41 0 26.67 21.43 48.02 48.1 48.02 8.89 0 16.2 7.2 16.2 16.09s-7.2 16.07-16.07 16.07-16.07-7.2-16.07-16.07-7.2-16.07-16.07-16.07-16.07 7.2-16.07 16.07c0 20.93 13.37 38.77 32.04 45.43l-.08 18.7c-.03 8.87 7.14 16.11 16.01 16.14 8.87.05 16.11-7.14 16.14-16.01l.08-18.74c18.78-6.59 32.26-24.48 32.26-45.51 0-26.6-21.77-48.24-48.35-48.24-8.83 0-15.95-7.04-15.95-15.87s7.2-16.07 16.07-16.07 16.03 7.15 16.07 15.98v.21c.06 8.81 7.23 15.96 16.07 15.96s16.07-7.2 16.07-16.07c0-21.04-13.5-38.95-32.31-45.52l.16-18.95c.06-8.87-7.07-16.12-15.95-16.2-8.87-.06-16.14 7.09-16.2 15.95l-.16 19.32z"/><path d="m153.61 266.38h128.6c8.87 0 16.07-7.2 16.07-16.07s-7.2-16.07-16.07-16.07h-128.6c-8.87 0-16.07 7.2-16.07 16.07s7.2 16.07 16.07 16.07z"/><path d="m153.61 330.87h128.6c8.87 0 16.07-7.2 16.07-16.07s-7.2-16.07-16.07-16.07h-128.6c-8.87 0-16.07 7.2-16.07 16.07s7.2 16.07 16.07 16.07z"/><path d="m153.61 394.87h128.6c8.87 0 16.07-7.2 16.07-16.07s-7.2-16.07-16.07-16.07h-128.6c-8.87 0-16.07 7.2-16.07 16.07s7.2 16.07 16.07 16.07z"/></g></svg>