<svg viewBox="0 0 500 500" xmlns="http://www.w3.org/2000/svg"><g fill="#509f45"><path d="m116.27 301.57c-3.95 0-7.9-1.51-10.91-4.52l-26.69-26.69c-10.04-10.05-15.57-23.4-15.57-37.6v-116.47c0-29.32 23.86-53.18 53.18-53.18h116.48c14.2 0 27.56 5.53 37.6 15.57l26.69 26.69c6.03 6.03 6.03 15.8 0 21.83s-15.8 6.02-21.83 0l-26.69-26.69c-4.21-4.21-9.82-6.54-15.78-6.54h-116.48c-12.3 0-22.31 10.01-22.31 22.31v116.47c0 5.96 2.32 11.56 6.54 15.78l26.69 26.69c6.03 6.03 6.03 15.8 0 21.82-3.01 3.01-6.96 4.52-10.91 4.52z"/><path d="m154.04 169.46c-8.52 0-15.44-6.91-15.44-15.43s6.9-15.43 15.42-15.43h.02c8.52 0 15.43 6.91 15.43 15.43s-6.91 15.43-15.43 15.43z"/><path d="m78.53 433.68c-3.95 0-7.9-1.51-10.91-4.52-6.03-6.03-6.03-15.8 0-21.83l339.7-339.7c6.03-6.03 15.8-6.03 21.83 0s6.03 15.8 0 21.82l-339.71 339.71c-3.01 3.01-6.96 4.52-10.91 4.52z"/><path d="m267.25 436.89c-13.62 0-27.23-5.18-37.6-15.55l-29.93-29.93c-6.03-6.03-6.03-15.8 0-21.83s15.8-6.03 21.83 0l29.93 29.93c8.7 8.7 22.85 8.7 31.55 0l116.47-116.47c4.22-4.21 6.54-9.82 6.54-15.78s-2.32-11.56-6.53-15.78l-29.93-29.93c-6.03-6.03-6.03-15.8 0-21.82 6.03-6.03 15.8-6.03 21.83 0l29.93 29.93c10.04 10.04 15.57 23.4 15.57 37.6s-5.53 27.56-15.57 37.6l-116.47 116.47c-10.37 10.37-23.99 15.55-37.6 15.55z" opacity=".5"/></g></svg>