<svg viewBox="0 0 500 500" xmlns="http://www.w3.org/2000/svg"><g fill="#509f45"><path d="m166.25 119.14c-8.67 0-15.7-7.03-15.7-15.7v-62.81c0-8.67 7.03-15.7 15.7-15.7s15.7 7.03 15.7 15.7v62.81c0 8.67-7.03 15.7-15.7 15.7z"/><path d="m333.75 119.14c-8.67 0-15.7-7.03-15.7-15.7v-62.81c0-8.67 7.03-15.7 15.7-15.7s15.7 7.03 15.7 15.7v62.81c0 8.67-7.03 15.7-15.7 15.7z"/><path d="m333.75 475.09h-167.51c-39.77 0-70.5-11.37-91.33-33.81-19.28-20.77-29.06-49.9-29.06-86.59v-177.97c0-36.69 9.78-65.82 29.06-86.59 20.83-22.43 51.56-33.81 91.33-33.81h167.51c39.77 0 70.5 11.37 91.33 33.81 19.28 20.77 29.06 49.9 29.06 86.59v177.97c0 36.69-9.78 65.82-29.06 86.59-20.83 22.43-51.56 33.81-91.33 33.81zm-167.5-387.36c-30.69 0-53.67 8-68.32 23.77-13.71 14.77-20.67 36.71-20.67 65.22v177.97c0 28.5 6.95 50.45 20.67 65.22 14.65 15.77 37.63 23.77 68.32 23.77h167.51c30.69 0 53.67-8 68.32-23.77 13.71-14.77 20.67-36.71 20.67-65.22v-177.97c0-28.5-6.95-50.45-20.67-65.22-14.65-15.77-37.63-23.77-68.32-23.77z" opacity=".5"/><path d="m333.75 244.77h-167.51c-8.67 0-15.7-7.03-15.7-15.7s7.03-15.7 15.7-15.7h167.51c8.67 0 15.7 7.03 15.7 15.7s-7.03 15.7-15.7 15.7z"/><path d="m250 349.46h-83.75c-8.67 0-15.7-7.03-15.7-15.7s7.03-15.7 15.7-15.7h83.75c8.67 0 15.7 7.03 15.7 15.7s-7.03 15.7-15.7 15.7z"/></g></svg>