<?xml version="1.0" encoding="UTF-8"?>
<!DOCTYPE svg PUBLIC "-//W3C//DTD SVG 1.1//EN" "http://www.w3.org/Graphics/SVG/1.1/DTD/svg11.dtd">
<svg xmlns="http://www.w3.org/2000/svg" version="1.1" width="200px" height="200px" style="shape-rendering:geometricPrecision; text-rendering:geometricPrecision; image-rendering:optimizeQuality; fill-rule:evenodd; clip-rule:evenodd" xmlns:xlink="http://www.w3.org/1999/xlink">
<g><path style="opacity:0.933" fill="#000000" d="M 85.5,-0.5 C 95.1667,-0.5 104.833,-0.5 114.5,-0.5C 161.165,9.49798 189.498,37.8313 199.5,84.5C 199.5,94.5 199.5,104.5 199.5,114.5C 189.381,161.619 160.715,189.952 113.5,199.5C 103.833,199.5 94.1667,199.5 84.5,199.5C 37.8333,189.5 9.5,161.167 -0.5,114.5C -0.5,104.5 -0.5,94.5 -0.5,84.5C 9.61874,37.3812 38.2854,9.04783 85.5,-0.5 Z M 91.5,13.5 C 92.4938,22.9856 92.8271,32.6522 92.5,42.5C 83.4766,42.4651 74.4766,41.9651 65.5,41C 71.3036,29.0323 79.9702,19.8657 91.5,13.5 Z M 106.5,13.5 C 118.647,19.4815 127.647,28.6481 133.5,41C 124.523,41.9651 115.523,42.4651 106.5,42.5C 106.5,32.8333 106.5,23.1667 106.5,13.5 Z M 58.5,22.5 C 59.0431,22.56 59.3764,22.8933 59.5,23.5C 56.6262,28.7486 53.6262,33.9152 50.5,39C 46.7364,39.0944 43.0698,38.4277 39.5,37C 45.1826,31.176 51.5159,26.3427 58.5,22.5 Z M 138.5,23.5 C 138.56,22.9569 138.893,22.6236 139.5,22.5C 146.698,26.599 153.364,31.4323 159.5,37C 156.083,38.1088 152.583,38.9421 149,39.5C 145.736,33.96 142.236,28.6266 138.5,23.5 Z M 28.5,49.5 C 34.1473,50.6079 39.8139,51.6079 45.5,52.5C 42.2878,66.319 40.2878,80.319 39.5,94.5C 30.5,94.5 21.5,94.5 12.5,94.5C 13.8788,78.0263 19.2122,63.0263 28.5,49.5 Z M 167.5,49.5 C 168.822,49.33 169.989,49.6634 171,50.5C 179.539,63.7838 184.706,78.2838 186.5,94C 177.506,94.4998 168.506,94.6664 159.5,94.5C 158.945,80.3343 156.611,66.5009 152.5,53C 157.679,52.0341 162.679,50.8675 167.5,49.5 Z M 60.5,54.5 C 71.1667,55.1667 81.8333,55.8333 92.5,56.5C 92.5,69.1667 92.5,81.8333 92.5,94.5C 79.5,94.5 66.5,94.5 53.5,94.5C 53.5224,80.7256 55.8557,67.3923 60.5,54.5 Z M 131.5,54.5 C 134.119,54.2317 136.619,54.565 139,55.5C 143.113,68.1803 145.28,81.1803 145.5,94.5C 132.5,94.5 119.5,94.5 106.5,94.5C 106.5,81.8333 106.5,69.1667 106.5,56.5C 115.012,56.1998 123.345,55.5331 131.5,54.5 Z M 12.5,107.5 C 21.5,107.5 30.5,107.5 39.5,107.5C 40.3097,120.691 42.3097,133.691 45.5,146.5C 40.1165,147.243 34.7831,148.243 29.5,149.5C 25.0118,144.54 21.5118,138.873 19,132.5C 15.7532,124.427 13.5865,116.094 12.5,107.5 Z M 53.5,107.5 C 66.5,107.5 79.5,107.5 92.5,107.5C 92.5,119.167 92.5,130.833 92.5,142.5C 81.8183,143.217 71.1517,143.717 60.5,144C 56.2869,132.226 53.9536,120.06 53.5,107.5 Z M 106.5,107.5 C 119.5,107.5 132.5,107.5 145.5,107.5C 145.046,120.06 142.713,132.226 138.5,144C 127.84,143.795 117.174,143.295 106.5,142.5C 106.5,130.833 106.5,119.167 106.5,107.5 Z M 159.5,107.5 C 168.506,107.334 177.506,107.5 186.5,108C 184.086,122.58 178.919,136.08 171,148.5C 164.837,148.728 158.671,147.894 152.5,146C 156.454,133.494 158.788,120.661 159.5,107.5 Z M 77.5,156.5 C 82.5,156.5 87.5,156.5 92.5,156.5C 92.6665,166.172 92.4998,175.839 92,185.5C 80.1119,179.279 71.2785,170.112 65.5,158C 69.6877,157.824 73.6877,157.324 77.5,156.5 Z M 106.5,156.5 C 115.523,156.535 124.523,157.035 133.5,158C 127.721,170.112 118.888,179.279 107,185.5C 106.5,175.839 106.334,166.172 106.5,156.5 Z M 48.5,159.5 C 49.4959,159.414 50.3292,159.748 51,160.5C 53.7903,165.917 56.957,171.084 60.5,176C 57.3772,175.279 54.3772,173.946 51.5,172C 47.5,168.667 43.5,165.333 39.5,162C 42.6282,161.159 45.6282,160.325 48.5,159.5 Z M 147.5,159.5 C 151.623,159.798 155.623,160.631 159.5,162C 153.666,167.898 147,172.231 139.5,175C 142.831,170.172 145.497,165.005 147.5,159.5 Z"/></g>
</svg>
