<?xml version="1.0" standalone="no"?>
<!DOCTYPE svg PUBLIC "-//W3C//DTD SVG 20010904//EN"
 "http://www.w3.org/TR/2001/REC-SVG-20010904/DTD/svg10.dtd">
<svg version="1.0" xmlns="http://www.w3.org/2000/svg"
 width="1116.000000pt" height="219.000000pt" viewBox="0 0 1116.000000 219.000000"
 preserveAspectRatio="xMidYMid meet">
<metadata>
Created by potrace 1.16, written by Peter Selinger 2001-2019
</metadata>
<g transform="translate(0.000000,219.000000) scale(0.100000,-0.100000)"
fill="#509f45" stroke="none">
<path d="M3753 2177 c-3 -5 -16 -7 -29 -4 -13 2 -24 1 -24 -4 0 -4 -9 -11 -21
-14 -20 -7 -21 -11 -17 -246 1 -131 6 -239 9 -239 3 0 24 9 48 21 28 13 69 21
124 24 54 3 74 2 57 -4 l-25 -9 27 -1 c56 -2 142 -44 195 -94 29 -27 53 -45
53 -38 0 28 20 6 45 -51 24 -54 28 -76 28 -148 0 -47 -5 -95 -9 -107 -6 -14
-9 17 -9 90 0 89 -4 121 -19 155 -10 23 -22 42 -27 42 -4 0 2 -19 14 -42 33
-67 36 -200 6 -281 -29 -78 -115 -169 -177 -188 -23 -7 -42 -16 -42 -21 0 -4
-36 -8 -80 -8 -44 0 -80 3 -80 8 0 4 -14 8 -32 8 -17 1 -37 9 -43 17 -7 9 -15
14 -18 10 -4 -3 -15 1 -26 11 -18 16 -18 11 -17 -230 l1 -247 30 -17 c17 -9
36 -15 44 -12 8 3 12 1 9 -4 -4 -5 50 -7 135 -3 151 6 211 19 325 70 35 16 68
26 74 23 6 -4 8 -3 5 3 -6 9 3 15 47 34 5 2 24 19 43 37 19 18 38 30 43 27 5
-3 12 0 16 6 5 8 3 9 -7 4 -8 -5 -1 5 15 22 17 18 33 30 37 28 4 -3 12 2 19
10 7 8 10 15 6 15 -4 0 1 11 10 25 9 14 21 22 27 18 5 -3 7 -1 4 5 -4 5 8 28
27 51 44 52 90 164 111 270 25 123 17 318 -18 422 -87 259 -281 446 -554 535
-60 20 -99 24 -214 27 -77 2 -143 -1 -146 -6z m214 -473 c-3 -3 -12 -4 -19 -1
-8 3 -5 6 6 6 11 1 17 -2 13 -5z m79 -30 c18 -14 18 -14 -6 -3 -31 14 -36 19
-24 19 6 0 19 -7 30 -16z m69 -45 c19 -17 35 -35 35 -40 0 -19 -18 -8 -49 31
-38 48 -34 51 14 9z"/>
<path d="M10182 2180 c-23 -5 -47 -12 -52 -15 -13 -8 -14 -505 -1 -505 5 0 33
11 62 25 137 62 309 28 408 -81 58 -64 84 -136 84 -234 0 -76 -4 -95 -31 -153
-38 -81 -85 -130 -160 -165 -50 -24 -69 -27 -157 -27 -90 0 -105 3 -152 28
-29 15 -55 27 -58 27 -3 0 -5 -112 -5 -249 0 -187 3 -251 13 -258 46 -37 287
-42 412 -8 90 24 252 107 322 165 86 70 155 158 208 265 69 141 80 193 79 385
0 152 -2 171 -27 241 -90 262 -279 444 -556 536 -63 21 -100 26 -211 29 -74 2
-154 -1 -178 -6z"/>
<path d="M1498 1541 c1 -425 -1 -638 -8 -646 -6 -7 -8 -19 -4 -28 3 -8 1 -18
-5 -21 -6 -4 -8 -13 -4 -21 3 -8 0 -15 -7 -15 -6 0 -8 -4 -5 -10 3 -5 1 -10
-5 -10 -6 0 -8 -4 -5 -10 3 -5 1 -10 -5 -10 -6 0 -8 -4 -5 -10 3 -5 1 -10 -5
-10 -7 0 -9 -7 -6 -16 4 -10 2 -13 -6 -8 -8 5 -9 2 -5 -10 4 -9 3 -15 -1 -12
-4 3 -14 -5 -22 -17 -12 -21 -12 -21 6 -8 10 7 1 -4 -21 -24 -22 -21 -31 -32
-20 -24 11 7 5 -3 -14 -24 -19 -20 -38 -34 -42 -31 -4 2 -13 -5 -19 -16 -6
-11 -15 -18 -21 -15 -5 4 -12 0 -15 -9 -3 -8 -12 -12 -20 -9 -7 3 -17 -2 -20
-11 -3 -9 -10 -13 -15 -10 -5 3 -9 0 -9 -6 0 -6 -4 -9 -9 -5 -5 3 -12 1 -16
-4 -3 -6 -12 -8 -20 -4 -8 3 -15 1 -15 -5 0 -6 -10 -8 -22 -4 -11 3 -19 1 -16
-4 4 -5 -44 -9 -113 -9 -65 0 -119 4 -119 8 0 5 -10 5 -21 2 -16 -5 -19 -4
-14 5 5 9 2 10 -14 5 -13 -4 -21 -2 -21 5 0 6 -5 8 -10 5 -6 -3 -10 -2 -10 4
0 6 -7 8 -15 5 -8 -4 -17 1 -21 10 -3 9 -10 13 -15 11 -5 -3 -16 3 -26 15 -10
11 -21 20 -26 20 -12 0 -87 77 -87 89 0 5 -7 12 -16 15 -8 3 -13 10 -9 15 3 6
-3 14 -12 20 -10 6 -13 11 -8 11 6 0 4 4 -3 9 -7 4 -14 15 -16 23 -1 9 -7 22
-13 29 -6 8 -20 43 -30 79 l-19 65 -222 3 -222 2 0 -42 c1 -74 38 -218 79
-302 165 -342 521 -566 896 -565 61 0 122 0 137 0 15 0 30 4 33 10 4 5 11 7
16 3 5 -3 16 0 24 6 8 6 19 9 24 6 5 -4 12 -2 16 4 4 6 10 8 15 5 5 -3 11 -1
15 4 3 6 12 8 20 4 8 -3 15 0 15 7 0 6 5 8 10 5 6 -3 10 -2 10 4 0 6 7 8 15 5
8 -4 15 -1 15 6 0 6 4 9 9 5 5 -3 15 1 23 8 7 8 19 12 26 9 6 -2 15 3 18 12 3
9 10 13 15 10 5 -3 9 0 9 6 0 6 4 9 9 6 5 -3 12 1 15 10 3 8 10 12 16 9 5 -3
10 -1 10 4 0 6 4 10 9 9 5 -2 17 6 26 17 9 11 13 13 10 5 -4 -8 8 1 27 21 18
19 29 28 23 19 -5 -9 0 -6 11 6 12 13 25 20 30 16 4 -4 4 -2 1 4 -3 6 17 33
46 60 l52 49 -45 -50 -45 -50 48 45 c26 24 47 48 47 53 0 6 8 16 18 24 11 10
12 12 2 8 -8 -4 -1 5 15 19 17 14 26 26 20 26 -5 0 -2 5 8 11 9 6 15 14 12 20
-4 5 -2 9 3 9 6 0 13 11 16 25 4 14 11 25 17 25 6 0 7 4 4 10 -3 5 -1 10 5 10
6 0 8 5 5 10 -3 6 -1 10 6 10 7 0 9 3 6 6 -3 4 -1 16 5 28 7 11 13 24 14 29 1
4 3 9 4 12 1 3 4 10 5 15 1 6 4 12 5 15 1 3 3 9 4 14 0 5 4 12 8 16 4 4 4 13
2 20 -3 7 -1 16 5 20 8 4 11 -24 11 -88 0 -90 1 -94 25 -105 14 -6 32 -9 40
-6 8 4 15 1 15 -4 0 -7 45 -11 125 -11 69 0 125 4 125 9 0 5 6 7 14 4 8 -3 17
-1 20 5 4 6 13 8 21 4 8 -3 15 1 15 8 0 7 3 10 6 6 4 -3 21 1 38 10 17 10 35
16 39 15 4 -1 10 5 13 13 4 8 12 15 20 15 7 0 18 9 24 20 6 11 17 20 24 20 16
0 48 34 40 43 -3 3 3 12 15 19 12 7 21 18 21 24 0 7 7 15 16 18 8 3 12 10 9
16 -3 5 -1 10 5 10 6 0 8 5 5 10 -3 6 -1 10 5 10 6 0 8 5 5 10 -3 6 -2 10 4
10 6 0 8 7 5 15 -4 8 -1 15 5 15 6 0 8 8 4 17 -6 15 -4 16 8 6 13 -10 15 -40
15 -163 -1 -82 3 -150 7 -150 5 0 5 -5 2 -10 -4 -6 -3 -10 2 -9 4 1 10 0 13
-1 36 -14 300 -21 300 -8 0 6 9 8 20 5 11 -3 20 -1 20 5 0 6 6 8 14 5 8 -3 16
-1 18 4 2 5 13 11 26 12 12 0 22 6 22 11 0 5 3 6 7 3 3 -4 11 0 17 8 6 7 17
15 25 17 8 2 26 14 39 28 13 14 20 18 16 10 -4 -8 5 -4 19 9 15 14 27 30 27
37 0 7 5 16 12 20 7 5 8 3 3 -6 -5 -9 -4 -11 4 -6 6 4 9 12 6 17 -4 5 5 20 18
33 14 14 22 27 19 30 -3 3 0 6 7 6 7 0 9 5 6 10 -3 6 -1 10 5 10 6 0 8 5 5 10
-3 6 -1 10 5 10 6 0 8 5 5 10 -3 6 -2 10 4 10 6 0 8 7 5 15 -4 8 -1 15 5 15 6
0 8 7 5 15 -4 9 0 15 10 15 9 0 16 5 16 11 0 5 -5 7 -11 3 -9 -5 -9 1 -3 22
10 32 13 1234 3 1228 -3 -2 -107 -4 -230 -4 l-224 -1 1 -517 c0 -284 -2 -521
-4 -526 -3 -6 -7 -21 -9 -35 -5 -47 -6 -51 -15 -51 -5 0 -7 -4 -3 -10 3 -5 -3
-18 -15 -30 -11 -11 -18 -20 -15 -20 3 0 0 -6 -7 -14 -7 -8 -16 -12 -20 -9 -5
2 -8 -1 -8 -7 0 -6 -4 -8 -10 -5 -5 3 -10 1 -10 -6 0 -7 -3 -9 -7 -6 -3 4 -12
2 -19 -4 -8 -6 -20 -9 -27 -6 -7 3 -32 2 -55 -3 -40 -7 -41 -6 -47 22 -4 16
-2 35 4 42 8 9 10 186 9 600 l-3 587 -233 2 -233 2 1 -520 c0 -286 -2 -533 -5
-550 -3 -16 -6 -36 -7 -42 -1 -7 -6 -13 -11 -13 -5 0 -7 -7 -3 -15 3 -8 1 -15
-4 -15 -6 0 -10 -7 -10 -15 0 -8 -5 -15 -11 -15 -5 0 -7 -5 -3 -12 4 -6 3 -8
-4 -4 -6 3 -17 -3 -25 -14 -7 -11 -17 -17 -20 -13 -4 3 -7 2 -7 -4 0 -5 -6
-10 -12 -11 -7 0 -39 -3 -70 -6 -31 -4 -59 -2 -62 3 -3 5 -6 287 -6 627 l-1
619 -227 0 -227 0 3 -634z"/>
<path d="M7887 2173 c-4 -3 -7 -301 -7 -661 l0 -655 -44 -91 c-98 -205 -241
-296 -465 -296 -180 1 -296 55 -399 186 -42 55 -89 155 -102 221 l-11 53 -229
0 c-161 0 -229 -3 -232 -11 -2 -7 0 -46 4 -88 35 -323 280 -629 611 -760 134
-54 205 -66 377 -65 152 1 157 2 265 39 61 20 133 49 160 64 252 133 441 360
505 606 l19 70 0 -116 1 -116 51 -11 c28 -7 97 -12 153 -12 154 0 255 36 354
125 66 59 106 117 137 197 l24 63 1 -181 0 -181 51 -11 c74 -17 245 -15 310 4
84 25 164 72 220 129 61 63 91 111 124 200 l25 65 0 615 c0 522 2 614 14 609
8 -3 17 -1 21 5 4 8 -69 11 -244 11 l-250 0 -3 -542 c-3 -541 -3 -543 -26
-593 -40 -87 -71 -109 -172 -120 l-65 -7 3 631 3 631 -230 0 -230 0 -4 -527
c-4 -560 -6 -585 -53 -656 -29 -44 -65 -62 -146 -72 l-58 -7 0 631 0 631 -228
0 c-126 0 -232 -3 -235 -7z"/>
<path d="M5724 2050 c-148 -33 -257 -81 -389 -170 -66 -45 -202 -178 -235
-229 -8 -13 -22 -33 -30 -45 -52 -72 -112 -227 -129 -336 -6 -36 -11 -215 -11
-402 l0 -338 230 0 230 0 0 313 c0 342 3 365 61 477 94 183 249 280 448 280
192 0 328 -71 428 -223 35 -53 80 -165 85 -210 l3 -28 215 0 c118 0 223 0 233
0 22 1 23 59 3 163 -57 287 -262 536 -558 675 -181 86 -402 113 -584 73z"/>
<path d="M5865 1232 c-40 -2 -116 -21 -125 -32 -3 -3 -23 -18 -46 -33 -40 -27
-104 -104 -104 -125 0 -6 -7 -18 -17 -27 -13 -13 -16 -38 -17 -123 -1 -102 1
-110 31 -168 39 -74 82 -116 163 -161 57 -30 69 -33 152 -33 80 0 97 3 155 31
76 36 133 93 171 169 24 49 27 66 27 155 0 87 -4 107 -25 149 -72 141 -197
209 -365 198z"/>
<path d="M9851 924 c0 -11 3 -14 6 -6 3 7 2 16 -1 19 -3 4 -6 -2 -5 -13z"/>
</g>
</svg>
