<svg width="26" height="26" viewBox="0 0 26 26" fill="none" xmlns="http://www.w3.org/2000/svg">
<path d="M2.16406 6.49589C2.16406 5.90005 2.64723 5.41797 3.24198 5.41797H11.9195C12.2054 5.41797 12.4795 5.53153 12.6817 5.73368C12.8838 5.93583 12.9974 6.21 12.9974 6.49589C12.9974 6.78177 12.8838 7.05594 12.6817 7.25809C12.4795 7.46024 12.2054 7.5738 11.9195 7.5738H3.24198C2.9561 7.5738 2.68193 7.46024 2.47978 7.25809C2.27763 7.05594 2.16406 6.78177 2.16406 6.49589ZM2.16406 13.0013C2.16406 12.4055 2.64723 11.9234 3.24198 11.9234H22.7528C23.0387 11.9234 23.3129 12.037 23.515 12.2391C23.7172 12.4412 23.8307 12.7154 23.8307 13.0013C23.8307 13.2872 23.7172 13.5614 23.515 13.7635C23.3129 13.9657 23.0387 14.0792 22.7528 14.0792H3.24198C2.9561 14.0792 2.68193 13.9657 2.47978 13.7635C2.27763 13.5614 2.16406 13.2872 2.16406 13.0013ZM3.24198 18.4288C2.9561 18.4288 2.68193 18.5424 2.47978 18.7445C2.27763 18.9467 2.16406 19.2208 2.16406 19.5067C2.16406 19.7926 2.27763 20.0668 2.47978 20.2689C2.68193 20.4711 2.9561 20.5846 3.24198 20.5846H16.2528C16.5387 20.5846 16.8129 20.4711 17.015 20.2689C17.2172 20.0668 17.3307 19.7926 17.3307 19.5067C17.3307 19.2208 17.2172 18.9467 17.015 18.7445C16.8129 18.5424 16.5387 18.4288 16.2528 18.4288H3.24198Z" fill="#4F9E00"/>
</svg>
