<svg width="93" height="83" viewBox="0 0 93 83" fill="none" xmlns="http://www.w3.org/2000/svg">
<circle cx="33" cy="33" r="33" fill="#F5F5F5"/>
<g clip-path="url(#clip0_1_5)">
<path fill-rule="evenodd" clip-rule="evenodd" d="M87.6583 72.7238C87.6583 73.2334 87.2446 73.6521 86.7299 73.6521H80.761L80.1404 71.0133H85.0144V48.0358C85.0144 47.9752 85.0195 47.9147 85.0296 47.8592L62.0924 32.3743L38.7062 47.8642C38.7263 47.9399 38.7364 48.0206 38.7364 48.1014V71.0032H43.7063L43.2421 73.642H37.0209C36.5113 73.642 36.0926 73.2283 36.0926 72.7137V49.0701C35.0532 49.4687 34.0895 49.4738 33.2822 49.2063C32.6515 48.9944 32.1217 48.616 31.7332 48.1216C31.3447 47.6321 31.0974 47.0317 31.0217 46.3758C30.9107 45.3515 31.2185 44.1911 32.0864 43.1063C32.1318 43.0508 32.1822 43.0003 32.2377 42.9549L61.3002 23.2418C61.6282 22.9391 62.1328 22.9088 62.496 23.1914L91.614 42.8641C91.6544 42.8943 91.6897 42.9297 91.725 42.965C92.8956 44.2264 93.1883 45.624 92.9057 46.8097C92.7644 47.3899 92.4869 47.9197 92.1035 48.3486C91.72 48.7825 91.2306 49.1155 90.6705 49.3174C89.7825 49.6403 88.733 49.6251 87.6634 49.1206C87.6583 56.9917 87.6583 64.8577 87.6583 72.7238ZM58.9641 48.8178C58.3334 46.9611 57.7683 45.0791 57.289 43.1718C59.0751 41.2142 65.9724 41.4715 67.9553 43.1416L66.1188 47.511C67.1077 46.2143 67.4407 45.6795 68.026 44.958C68.2732 45.1194 68.5053 45.3011 68.7273 45.5029C69.2521 45.9772 69.7163 46.4969 69.8121 47.2285C69.8727 47.7028 69.7364 48.1821 69.3177 48.6715L65.1046 53.5809C64.5597 53.49 64.0299 53.3639 63.5152 53.1772C63.7524 52.6172 64.04 51.9965 64.2822 51.4314L62.7483 53.0864C61.1489 52.7483 59.8622 52.9502 58.6664 53.5859L54.3928 48.4546C54.1406 48.1468 54.0245 47.844 54.0245 47.5363C54.0296 46.2951 55.8762 45.2254 56.845 44.8217L58.9641 48.8178ZM64.4436 58.0866L63.6111 54.2721C67.1834 54.9381 72.9101 62.2037 74.7618 65.5086C75.7054 67.1938 76.5328 69.0556 77.2089 71.1294C78.5561 76.1547 77.2594 80.8623 71.8051 81.9571C68.3893 82.6433 62.0167 82.6938 58.4192 82.5071C54.5543 82.3053 48.5753 82.3154 47.0162 78.3445C44.4934 71.9417 49.1152 64.3128 53.3232 59.6456C53.8782 59.0301 54.4483 58.4599 55.0437 57.9301C56.5776 56.583 58.2275 54.9835 60.2003 54.3175L58.2981 57.8645L61.0631 54.1964H62.5213L64.4436 58.0866ZM62.6676 61.2148V61.8909C63.3841 61.9666 63.9996 62.1129 64.5042 62.3299C65.0188 62.5519 65.4628 62.8849 65.8463 63.3289C66.149 63.672 66.3811 64.0252 66.5426 64.3834C66.7091 64.7467 66.7898 65.0747 66.7898 65.3724C66.7898 65.7054 66.6687 65.998 66.4265 66.2402C66.1793 66.4824 65.8867 66.6035 65.5385 66.6035C64.8826 66.6035 64.4537 66.2503 64.262 65.5389C64.04 64.7063 63.5102 64.1463 62.6676 63.8738V68.0415C63.4951 68.2685 64.156 68.4754 64.6455 68.6621C65.1399 68.8488 65.5789 69.1162 65.9623 69.4744C66.3761 69.8377 66.699 70.2817 66.921 70.7913C67.143 71.3059 67.254 71.861 67.254 72.4715C67.254 73.2334 67.0774 73.9448 66.7192 74.6057C66.3609 75.2718 65.8362 75.8116 65.1399 76.2355C64.4436 76.6543 63.6212 76.9065 62.6625 76.9822V77.6634C62.6625 78.0569 62.6222 78.3445 62.5465 78.5262C62.4708 78.7078 62.3043 78.7986 62.0419 78.7986C61.8048 78.7986 61.6332 78.728 61.5374 78.5817C61.4415 78.4353 61.3961 78.2083 61.3961 77.9005V77.0125C60.6191 76.9267 59.9329 76.74 59.3476 76.4625C58.7623 76.18 58.2729 75.8318 57.8844 75.4181C57.4959 74.9993 57.2032 74.5654 57.0216 74.1163C56.8349 73.6673 56.739 73.2233 56.739 72.7843C56.739 72.4664 56.8601 72.1738 57.1175 71.9215C57.3647 71.6642 57.6775 71.533 58.0509 71.533C58.3536 71.533 58.6059 71.6036 58.8128 71.7399C59.0196 71.8811 59.1609 72.0779 59.2416 72.3302C59.4182 72.8751 59.5747 73.2989 59.7109 73.5865C59.8471 73.8792 60.0489 74.1416 60.3214 74.3837C60.5939 74.6209 60.9521 74.8076 61.3961 74.9337V70.2766C60.498 70.0294 59.7563 69.7519 59.1559 69.4492C58.5554 69.1464 58.066 68.7125 57.6927 68.1525C57.3193 67.5924 57.1326 66.8709 57.1326 65.9879C57.1326 64.8375 57.4959 63.894 58.2275 63.1624C58.9591 62.4257 60.0136 62.0019 61.3961 61.8808V61.2249C61.3961 60.6648 61.608 60.3823 62.0268 60.3823C62.4557 60.3974 62.6676 60.6699 62.6676 61.2148ZM61.3961 67.6782V63.8435C60.836 64.0101 60.3971 64.2321 60.0843 64.5045C59.7714 64.777 59.615 65.1958 59.615 65.7508C59.615 66.2755 59.7613 66.6792 60.054 66.9466C60.3466 67.214 60.7957 67.4612 61.3961 67.6782ZM62.6676 70.65V75.0397C63.3386 74.9085 63.8583 74.636 64.2317 74.2324C64.595 73.8237 64.7817 73.3494 64.7817 72.8095C64.7817 72.2293 64.6051 71.7802 64.2469 71.4624C63.8886 71.1394 63.3639 70.872 62.6676 70.65Z" fill="#4F9E00"/>
</g>
<defs>
<clipPath id="clip0_1_5">
<rect width="62" height="59.5983" fill="white" transform="translate(31 23)"/>
</clipPath>
</defs>
</svg>
