<svg width="97" height="81" viewBox="0 0 97 81" fill="none" xmlns="http://www.w3.org/2000/svg">
<circle cx="33" cy="33" r="33" fill="#F5F5F5"/>
<g clip-path="url(#clip0_1_5)">
<path fill-rule="evenodd" clip-rule="evenodd" d="M42.7051 55.4639L42.6406 59.5773H49.9883C50.7304 59.5787 51.4423 59.8717 51.9714 60.3935C52.5005 60.9154 52.8046 61.6244 52.8184 62.3685V65.2067V76.3127C52.8153 77.0645 52.5161 77.7846 51.986 78.3162C51.456 78.8478 50.7379 79.1478 49.9883 79.1509H47.1289V66.2233C47.1289 65.048 47.3516 65.1949 46.2266 65.1949H38.9492H35.3223C34.1955 65.1903 33.1162 64.7393 32.3194 63.9403C31.5227 63.1412 31.073 62.0588 31.0684 60.9288V46.9669C31.0699 45.8167 31.5258 44.7139 32.3363 43.9C33.1467 43.0862 34.2457 42.6275 35.3926 42.6244H37.5313C40.9238 42.6244 41.2637 44.2521 42.1309 45.9562L45.7461 47.3841C48.3594 48.5593 47.6914 48.8003 49.4668 46.5967L51.7754 43.7232C52.9062 41.9133 57.3769 43.8055 55.4609 46.8435L52.1094 51.4328C50.709 53.3485 48.8574 53.6188 46.6133 52.6786L42.7051 51.2977V55.4639ZM58.7305 41.4374C59.9896 42.6695 61.5926 43.4884 63.3267 43.7854C65.0608 44.0824 66.8439 43.8435 68.4394 43.1003L71.4453 44.2756L70.4492 41.9251C73.789 39.2397 73.1914 35.5494 70.7304 33.0344C70.5666 33.9923 70.2437 34.9159 69.7754 35.7668C69.0841 37.0013 68.1418 38.0764 67.0097 38.9223C65.8484 39.8003 64.5411 40.4648 63.1484 40.885C61.7169 41.3179 60.225 41.5164 58.7305 41.4726V41.4374ZM63.3476 30.1315C63.6061 30.1315 63.8587 30.2084 64.0736 30.3524C64.2884 30.4963 64.4559 30.701 64.5548 30.9404C64.6537 31.1799 64.6796 31.4434 64.6292 31.6976C64.5788 31.9518 64.4543 32.1852 64.2716 32.3685C64.0888 32.5518 63.856 32.6766 63.6026 32.7271C63.3491 32.7777 63.0864 32.7517 62.8476 32.6526C62.6089 32.5534 62.4048 32.3854 62.2612 32.1699C62.1176 31.9544 62.041 31.7011 62.041 31.4419C62.041 31.0944 62.1787 30.7611 62.4237 30.5153C62.6688 30.2696 63.0011 30.1315 63.3476 30.1315ZM54.7051 30.1315C54.9635 30.1315 55.2161 30.2084 55.431 30.3524C55.6459 30.4963 55.8134 30.701 55.9122 30.9404C56.0111 31.1799 56.037 31.4434 55.9866 31.6976C55.9362 31.9518 55.8117 32.1852 55.629 32.3685C55.4463 32.5518 55.2134 32.6766 54.96 32.7271C54.7065 32.7777 54.4438 32.7517 54.205 32.6526C53.9663 32.5534 53.7622 32.3854 53.6186 32.1699C53.4751 31.9544 53.3984 31.7011 53.3984 31.4419C53.3984 31.0944 53.5361 30.7611 53.7811 30.5153C54.0262 30.2696 54.3585 30.1315 54.7051 30.1315ZM59.0293 30.1315C59.2877 30.1315 59.5403 30.2084 59.7552 30.3524C59.9701 30.4963 60.1376 30.701 60.2365 30.9404C60.3354 31.1799 60.3612 31.4434 60.3108 31.6976C60.2604 31.9518 60.136 32.1852 59.9532 32.3685C59.7705 32.5518 59.5377 32.6766 59.2842 32.7271C59.0307 32.7777 58.768 32.7517 58.5293 32.6526C58.2905 32.5534 58.0864 32.3854 57.9429 32.1699C57.7993 31.9544 57.7226 31.7011 57.7226 31.4419C57.7226 31.0944 57.8603 30.7611 58.1054 30.5153C58.3504 30.2696 58.6827 30.1315 59.0293 30.1315ZM59.2871 22.9978C61.9166 23.0437 64.453 23.9821 66.4824 25.6597C67.3914 26.3938 68.1237 27.3239 68.6249 28.3809C69.126 29.438 69.3831 30.5947 69.3769 31.7651C69.3157 32.9384 68.9909 34.0827 68.4268 35.1125C67.8627 36.1422 67.0738 37.0308 66.1191 37.7118C63.9911 39.2654 61.4012 40.0504 58.7715 39.9389C58.0029 39.9175 57.2379 39.8251 56.4863 39.6627C55.82 39.5246 55.1671 39.3279 54.5351 39.0751L50.041 40.838L51.541 37.2535C50.6815 36.522 49.9746 35.6273 49.4609 34.6209C48.9177 33.5504 48.6499 32.3606 48.6816 31.1599C48.7455 29.9883 49.0728 28.8464 49.639 27.8196C50.2052 26.7929 50.9957 25.9078 51.9512 25.2308C54.0734 23.6785 56.6567 22.8915 59.2812 22.9978H59.2871ZM59.2578 24.0966C56.8757 23.9946 54.5293 24.7051 52.6016 26.1122C51.7766 26.6953 51.0939 27.4581 50.6048 28.3435C50.1157 29.2289 49.8328 30.2138 49.7773 31.2245C49.752 32.2444 49.9816 33.2545 50.4453 34.1626C50.9548 35.1416 51.6682 35.9993 52.5371 36.6776L52.8652 36.9362L52.0625 38.8636L54.5469 37.8881L54.7519 37.9763C55.3855 38.2432 56.0427 38.4498 56.7148 38.5933C57.4009 38.7426 58.0991 38.8291 58.8008 38.8518C61.1815 38.9572 63.5277 38.2509 65.457 36.848C66.2772 36.2674 66.9564 35.5089 67.4444 34.629C67.9323 33.749 68.2163 32.7702 68.2754 31.7651C68.2781 30.7584 68.054 29.7641 67.6198 28.8564C67.1855 27.9488 66.5523 27.1513 65.7676 26.5235C63.9307 25.0125 61.639 24.1678 59.2637 24.126L59.2578 24.0966ZM94.6718 76.4714C94.6487 76.291 94.5663 76.1235 94.4375 75.9954C93.4053 74.9666 92.1698 74.1659 90.8105 73.6449C89.7869 73.2495 88.7147 72.9946 87.623 72.8869L87.8398 69.5081H95.5156C95.9015 69.5065 96.2711 69.3517 96.5435 69.0774C96.8158 68.8032 96.9687 68.4319 96.9687 68.0449C96.9687 62.01 95.5507 57.4677 96.9687 50.5925C97.3906 48.5535 93.1953 48.242 93.1953 50.6983V66.1998H78.6816C77.8847 66.1998 77.2285 67.2692 77.2285 68.0684V69.2084C77.2285 69.2941 77.2624 69.3763 77.3229 69.4369C77.3833 69.4975 77.4653 69.5316 77.5508 69.5316H85.25L85.5488 72.8751C84.3942 72.9485 83.2559 73.1859 82.1679 73.5803C80.871 74.0514 79.6772 74.7698 78.6523 75.6957C78.5423 75.7973 78.4619 75.927 78.4196 76.0708C78.3772 76.2147 78.3747 76.3673 78.4121 76.5125C78.2046 76.6417 78.0368 76.8258 77.9272 77.0446C77.8176 77.2635 77.7705 77.5084 77.791 77.7524C77.791 78.1638 77.954 78.5584 78.2441 78.8494C78.5342 79.1403 78.9276 79.3037 79.3379 79.3037C79.7481 79.3037 80.1416 79.1403 80.4317 78.8494C80.7218 78.5584 80.8847 78.1638 80.8847 77.7524C80.9045 77.5064 80.8558 77.2597 80.7441 77.0397C80.6324 76.8198 80.462 76.6352 80.2519 76.5066C81.0063 75.9237 81.8464 75.4618 82.7422 75.1375C83.7848 74.7601 84.8803 74.5499 85.9883 74.5146L86.1582 76.1893V76.2598C85.8275 76.3406 85.5345 76.5331 85.3286 76.8049C85.1227 77.0766 85.0163 77.4112 85.0273 77.7524C85.0143 77.9638 85.0446 78.1756 85.1163 78.3747C85.188 78.5739 85.2997 78.7562 85.4443 78.9105C85.589 79.0648 85.7636 79.1877 85.9574 79.2718C86.1512 79.3558 86.3601 79.3992 86.5713 79.3992C86.7824 79.3992 86.9913 79.3558 87.1851 79.2718C87.379 79.1877 87.5536 79.0648 87.6982 78.9105C87.8428 78.7562 87.9545 78.5739 88.0262 78.3747C88.0979 78.1756 88.1282 77.9638 88.1152 77.7524C88.1277 77.4133 88.0231 77.0803 87.8193 76.8095C87.6154 76.5386 87.3247 76.3466 86.9961 76.2657V76.1835L87.1074 74.5322C88.1678 74.5962 89.2117 74.8262 90.2011 75.2139C91.0967 75.5557 91.9316 76.0398 92.6738 76.6477C92.5098 76.7776 92.3814 76.947 92.3004 77.1402C92.2195 77.3334 92.1887 77.544 92.2109 77.7524C92.2453 78.1523 92.4193 78.5271 92.7023 78.8109C92.9853 79.0947 93.3591 79.2692 93.7578 79.3037C94.16 79.2776 94.5392 79.106 94.8248 78.8206C95.1104 78.5353 95.283 78.1557 95.3105 77.7524C95.3314 77.5033 95.282 77.2533 95.1681 77.031C95.0541 76.8086 94.8801 76.6229 94.666 76.4949L94.6718 76.4714ZM82.291 29.2266C81.1205 29.2266 79.9763 29.5747 79.0031 30.2268C78.0299 30.8789 77.2714 31.8059 76.8235 32.8903C76.3756 33.9748 76.2584 35.1681 76.4867 36.3194C76.7151 37.4707 77.2787 38.5282 78.1064 39.3582C78.934 40.1882 79.9885 40.7535 81.1364 40.9825C82.2844 41.2115 83.4743 41.094 84.5557 40.6448C85.6371 40.1956 86.5613 39.4349 87.2116 38.4589C87.8619 37.4829 88.209 36.3354 88.209 35.1616C88.209 33.5875 87.5855 32.0779 86.4756 30.9649C85.3658 29.8519 83.8605 29.2266 82.291 29.2266ZM79.8301 52.5082L79.9414 59.5596H72.5937C71.8487 59.5611 71.1341 59.8566 70.6045 60.3822C70.0749 60.9078 69.7729 61.6213 69.7637 62.3685V65.2067H69.7988V76.3127C69.8004 77.064 70.0982 77.7841 70.6273 78.3159C71.1565 78.8476 71.8739 79.1478 72.623 79.1509H75.4531V66.0352C75.4531 64.7895 75.9219 65.2184 77.3222 65.2184H83.6386H87.2656C88.3924 65.2138 89.4717 64.7628 90.2684 63.9638C91.0652 63.1647 91.5149 62.0823 91.5195 60.9523V46.1325C91.5149 44.9843 91.0576 43.8845 90.2475 43.0732C89.4374 42.2619 88.3402 41.8048 87.1953 41.8017H85.0508C80.5976 41.8017 81.3066 44.8808 79.332 46.8141C77.3574 48.7474 77.8789 48.9413 75.2304 48.9413H69.4824C66.9101 48.8884 66.4179 53.6423 70.0683 53.4249H75.3418C77.6855 53.4249 77.8847 53.8009 79.8183 52.514L79.8301 52.5082ZM72.1367 54.3357H51.3652C51.2984 54.3357 51.2343 54.3623 51.1871 54.4097C51.1398 54.4571 51.1133 54.5213 51.1133 54.5883V58.2022C51.1148 58.2688 51.1418 58.3322 51.1887 58.3792C51.2357 58.4263 51.2989 58.4534 51.3652 58.4549H59.3574V80.5847C59.3589 80.6731 59.3946 80.7574 59.4569 80.8199C59.5192 80.8824 59.6033 80.9182 59.6914 80.9197H63.5058C63.5934 80.9181 63.6769 80.8822 63.7382 80.8195C63.7996 80.7569 63.834 80.6726 63.834 80.5847V58.4549H72.1367C72.1698 58.4549 72.2025 58.4484 72.2331 58.4357C72.2637 58.423 72.2915 58.4044 72.3149 58.3809C72.3383 58.3574 72.3568 58.3296 72.3695 58.2989C72.3821 58.2683 72.3886 58.2354 72.3886 58.2022V54.5883C72.3886 54.5552 72.3821 54.5223 72.3695 54.4916C72.3568 54.461 72.3383 54.4331 72.3149 54.4097C72.2915 54.3862 72.2637 54.3676 72.2331 54.3549C72.2025 54.3422 72.1698 54.3357 72.1367 54.3357ZM25.7832 51.4622H27.8457C28.0443 51.4745 28.2316 51.5588 28.3728 51.6993C28.514 51.8399 28.5995 52.0271 28.6133 52.2261C29.4019 57.1144 29.7938 62.0588 29.7852 67.0107H43.9004C44.1698 67.0107 44.4282 67.1176 44.6192 67.3081C44.8103 67.4985 44.9184 67.7571 44.9199 68.0273V70.0781H44.1055V80.5847C44.1039 80.6663 44.0705 80.744 44.0125 80.8012C43.9544 80.8583 43.8763 80.8903 43.7949 80.8903H41.0938C41.0124 80.8903 40.9343 80.8583 40.8762 80.8012C40.8181 80.744 40.7847 80.6663 40.7832 80.5847V76.0072H29.2344C29.0645 77.3998 28.8594 78.7866 28.6133 80.1793C28.5984 80.3785 28.5128 80.5657 28.3719 80.707C28.2311 80.8483 28.0444 80.9342 27.8457 80.9491H25.7832C25.3613 80.9491 24.8984 80.5847 24.9981 80.1793C27.7344 70.6892 27.166 61.4048 24.9981 52.2261C24.9043 51.8206 25.3438 51.4622 25.7656 51.4622H25.7832ZM40.7832 74.591V70.0781H29.75C29.6856 71.9996 29.5566 72.6754 29.3516 74.591H40.7832ZM37.4023 29.015C38.5742 29.0139 39.7201 29.3613 40.695 30.0134C41.67 30.6655 42.4302 31.5929 42.8794 32.6784C43.3287 33.7638 43.4468 34.9585 43.2189 36.1113C42.991 37.2641 42.4273 38.3232 41.5991 39.1546C40.7708 39.9861 39.7153 40.5525 38.566 40.7822C37.4168 41.0119 36.2254 40.8946 35.1426 40.4451C34.0598 39.9956 33.1343 39.2342 32.4831 38.2571C31.832 37.28 31.4844 36.1311 31.4844 34.9559C31.4844 33.3813 32.1077 31.8711 33.2174 30.7571C34.327 29.6432 35.8323 29.0166 37.4023 29.015Z" fill="#4F9E00"/>
</g>
<defs>
<clipPath id="clip0_1_5">
<rect width="72" height="57.9512" fill="white" transform="translate(25 23)"/>
</clipPath>
</defs>
</svg>
