<svg width="94" height="85" viewBox="0 0 94 85" fill="none" xmlns="http://www.w3.org/2000/svg">
<circle cx="33" cy="33" r="33" fill="#F5F5F5"/>
<g clip-path="url(#clip0_1_5)">
<path fill-rule="evenodd" clip-rule="evenodd" d="M43.1576 53.933V42.5644C39.767 43.7125 37.4453 40.6013 39.7384 38.0906H39.7398C39.7765 38.0498 39.8201 38.0127 39.8691 37.9791L61.399 23.1829C61.5368 23.072 61.7147 23.0074 61.9013 23.0006C62.0879 22.9938 62.2712 23.0452 62.4189 23.1458L83.9992 37.9108L83.9978 37.912C84.0305 37.9348 84.0618 37.9599 84.0904 37.9875C86.8206 40.5726 83.942 43.987 80.6262 42.6088V54.1271C80.4846 54.1511 80.3457 54.1763 80.2095 54.205L79.0453 53.3733V41.789C79.0453 41.7423 79.0507 41.6979 79.0603 41.6548L62.0758 30.0345L44.7113 41.6608C44.7291 41.7183 44.7386 41.7782 44.7386 41.8405V54.3477C44.3001 54.1871 43.8453 54.0636 43.3755 53.9725L43.1576 53.933ZM38.2133 71.1273C38.9786 71.1273 39.5968 71.6726 39.5968 72.3449C39.5968 73.0172 38.9786 73.5625 38.2133 73.5625C37.4494 73.5625 36.8298 73.0172 36.8298 72.3449C36.8298 71.6726 37.4494 71.1273 38.2133 71.1273ZM78.4897 60.4993C78.4884 60.268 78.5047 60.0499 78.5374 59.8426L75.8167 58.2438C75.4245 58.0137 74.9956 57.7501 74.5667 57.4852C71.1733 55.3927 67.961 54.0912 63.767 55.0464C61.3214 55.6036 60.7359 56.5936 59.1699 58.2343C59.1141 58.3277 59.0351 58.4092 58.9411 58.4727L53.9015 63.7508C54.1588 64.9097 55.3163 65.4094 56.5786 65.3171C58.2862 65.1925 59.9679 63.7388 61.222 62.7297C61.8674 62.2095 62.5142 61.6906 63.1924 61.3347C64.7624 60.5113 66.3243 60.4838 67.8698 62.7656L75.7935 75.3434H78.487L78.4897 60.4993ZM79.127 58.4871C79.2495 58.3373 79.3898 58.1995 79.5464 58.0749C80.2395 57.5272 81.2295 57.2599 82.4986 57.2587V57.2551L89.3874 57.2575C92.1285 57.2479 94.3304 58.1659 93.9586 60.9152L92.4349 74.7658C92.2375 76.9698 91.1209 78.759 88.3239 78.656L82.1309 78.6572C81.2635 78.6967 80.5282 78.4894 79.9127 78.0568C79.4606 77.7404 79.0889 77.3077 78.7893 76.7672H76.6473C76.936 77.5091 76.921 78.215 76.6909 78.8393C76.454 79.4841 75.9924 80.0318 75.4027 80.4429C74.8281 80.8456 74.1227 81.1212 73.3888 81.2267C72.6698 81.3309 71.9181 81.2734 71.2196 81.0181C70.4067 81.766 69.5515 82.237 68.6582 82.4539C67.7622 82.6708 66.8553 82.6265 65.9362 82.3436C65.0647 83.1933 64.1006 83.7267 63.0385 83.9292C61.9573 84.1353 60.808 83.9927 59.5907 83.4882C59.2107 83.7494 58.8131 83.9556 58.3992 84.1066C57.8109 84.3211 57.1927 84.4194 56.55 84.4026C55.0058 84.363 53.9655 83.9616 53.1376 83.3096C52.3478 82.6888 51.8181 81.8918 51.2203 80.9738L47.8051 75.7329H45.158C44.7549 77.5139 43.5199 78.6272 41.2976 78.5865L35.5226 78.5877C32.452 79.0263 31.5437 76.4005 31.285 74.2516L31.2768 74.1917L30.084 61.1777C29.6822 58.7963 30.7022 57.1748 33.5754 57.0574L33.6748 57.0526H40.9871V57.055C42.7736 57.0382 44.5888 57.472 45.1512 59.1331H50.1268C51.3782 58.3913 52.5493 57.8076 53.8443 57.4529C55.1147 57.1041 56.4792 56.9807 58.1078 57.152C59.848 55.3316 60.631 54.3009 63.3639 53.6789C68.1122 52.5979 71.6594 53.9677 75.4844 56.3275C75.8834 56.5732 76.2797 56.8177 76.7072 57.0694L79.127 58.4871ZM43.7037 60.0427C43.6826 59.9776 43.6716 59.9103 43.671 59.8426C43.671 59.8234 43.6724 59.8042 43.6737 59.7863C43.4422 58.589 42.1691 58.4548 40.9966 58.4668H40.9871V58.4692H33.6434C31.7357 58.547 31.4143 59.4507 31.6785 60.9895L31.6867 61.0542L32.8822 74.103C33.032 75.3446 33.3738 77.4959 35.3238 77.1843C35.3728 77.1759 35.4205 77.1723 35.4681 77.1723L41.2526 77.1699L41.3398 77.1747C43.2707 77.2035 43.6588 75.8887 43.7064 74.429L43.7037 60.0427ZM45.3146 74.3164H48.2708C48.584 74.3164 48.8536 74.4722 48.9871 74.7011L52.616 80.2703C53.1471 81.0865 53.6169 81.7924 54.2079 82.2574C54.7607 82.6924 55.4838 82.962 56.5936 82.992C57.0102 83.0028 57.4092 82.9381 57.7891 82.8003C58.022 82.7152 58.2507 82.6013 58.4741 82.4587L56.1102 78.5649C55.6145 77.7452 57.0307 77.0812 57.5263 77.8998L60.0959 82.1327C61.0531 82.5606 61.9192 82.6936 62.6994 82.545C63.413 82.4096 64.0843 82.032 64.7175 81.4244L61.0136 76.3082C60.4472 75.5268 61.8007 74.7682 62.3658 75.5496L66.2698 80.9426C66.9534 81.1871 67.6111 81.2435 68.2375 81.0913C68.8353 80.9462 69.433 80.6095 70.0308 80.0642L66.4958 74.2061C65.9988 73.3828 67.4204 72.7188 67.9175 73.541L71.575 79.6016C72.0502 79.8449 72.6004 79.9084 73.1301 79.8317C73.593 79.7646 74.0383 79.5908 74.4032 79.3355C74.7546 79.0898 75.0283 78.7722 75.1617 78.4079C75.3088 78.0088 75.2938 77.539 75.0419 77.0285C74.9888 76.9218 74.9684 76.8104 74.9765 76.7013C74.865 76.659 74.7659 76.5949 74.6867 76.5139C74.6074 76.433 74.5501 76.3372 74.519 76.2339L66.4904 63.4871C65.5985 62.1736 64.7937 62.14 64.0162 62.5475C63.4647 62.8363 62.8846 63.3037 62.3045 63.7711C60.71 65.0523 58.9425 66.5659 56.7107 66.7289C54.4189 66.8955 52.4526 65.6863 52.2565 63.5962C52.2361 63.3804 52.3273 63.1791 52.4894 63.0377L56.8278 58.4931C55.9045 58.4823 55.0889 58.5926 54.3222 58.8035C53.1539 59.1235 52.0632 59.682 50.8703 60.3987C50.7283 60.4971 50.5528 60.5507 50.3719 60.5509H45.3146V74.3164ZM85.5638 71.1273C86.3277 71.1273 86.9472 71.6726 86.9472 72.3449C86.9472 73.0172 86.3277 73.5625 85.5638 73.5625C84.7985 73.5625 84.1789 73.0172 84.1789 72.3449C84.1789 71.6726 84.7985 71.1273 85.5638 71.1273ZM57.6829 36.9748H66.3147C66.6184 36.9748 66.8662 37.1881 66.8662 37.4506V42.8197C66.8662 43.0821 66.6184 43.2955 66.3147 43.2955H57.6829C57.3779 43.2955 57.1314 43.0821 57.1314 42.8197V37.4506C57.1314 37.1881 57.3779 36.9748 57.6829 36.9748ZM65.9716 40.4276H62.3467V42.5273H65.9716V40.4276ZM61.4753 40.4276H58.0261V42.5273H61.4753V40.4276ZM58.0261 39.8427H61.4753V37.7418H58.0261V39.8427ZM62.3467 39.8427H65.9716V37.7418H62.3467V39.8427ZM56.8863 46.5589H66.3447C66.7696 46.5589 67.1127 46.8705 67.1127 47.2552V50.0344C66.6102 50.0176 66.0996 50.0236 65.5781 50.0536V47.9515H57.653V50.6444L56.1183 51.1142V47.2552C56.1183 46.8705 56.4615 46.5589 56.8863 46.5589Z" fill="#4F9E00"/>
</g>
<defs>
<clipPath id="clip0_1_5">
<rect width="64" height="61.4054" fill="white" transform="translate(30 23)"/>
</clipPath>
</defs>
</svg>
