<svg width="28" height="36" viewBox="0 0 28 36" fill="none" xmlns="http://www.w3.org/2000/svg">
<g clip-path="url(#clip0_2694_2991)">
<path fill-rule="evenodd" clip-rule="evenodd" d="M26.971 33.0893L23.4695 32.474L21.7307 35.518C20.4708 37.0473 19.6717 34.5336 19.3186 33.6576L15.9398 27.4174C16.7179 27.1537 17.6576 26.3891 18.6333 25.5336C20.5576 25.5717 22.3502 25.2406 23.67 23.6L27.5606 30.9477L27.8988 31.6508C28.1621 32.5678 28.0245 33.1742 27.0009 33.0893H26.971ZM1.03002 33.0893L4.53151 32.474L6.28525 35.518C7.54519 37.0473 8.34425 34.5336 8.6974 33.6576L12.0612 27.4174C11.2831 27.1537 10.3434 26.3891 9.36777 25.5336C7.44344 25.5717 5.65079 25.2406 4.331 23.6L0.440448 30.9477L0.117233 31.642C-0.14912 32.559 -0.00846145 33.1654 1.03002 33.0805V33.0893ZM21.0993 2.34512C21.3218 2.4281 21.5253 2.55358 21.6978 2.71426L23.4097 4.26114C23.5821 4.41962 23.724 4.60718 23.8286 4.81485C23.9333 5.02819 23.9904 5.26087 23.9962 5.49747C24.0041 5.73416 23.9644 5.97006 23.8795 6.1918C23.7951 6.41258 23.6623 6.61258 23.4905 6.77774L23.263 7.0209C23.6383 7.67014 23.9394 8.35788 24.1608 9.07168H24.3254C24.5672 9.06066 24.8086 9.09856 25.0347 9.18301C25.2575 9.26686 25.461 9.39335 25.6333 9.55508C25.8075 9.71226 25.947 9.90269 26.0433 10.1147C26.1417 10.3258 26.1976 10.5536 26.2079 10.7856L26.2947 13.0912C26.3077 13.3221 26.2731 13.5531 26.1929 13.7706C26.1127 13.988 25.9885 14.1874 25.8278 14.3568C25.6646 14.5314 25.4672 14.6719 25.2472 14.7699C25.027 14.8644 24.7902 14.9162 24.5499 14.9223H24.2087C24.0024 15.6336 23.7184 16.3212 23.3618 16.9731L23.4845 17.0785L23.5174 17.1107C23.6877 17.2721 23.8231 17.4654 23.9154 17.6791C24.0119 17.8905 24.0648 18.1185 24.0711 18.35C24.0802 18.5791 24.0446 18.8078 23.9663 19.0238C23.8859 19.2391 23.7651 19.4378 23.6102 19.6098L23.5892 19.6303L21.9971 21.3031C21.8377 21.479 21.6445 21.6224 21.4285 21.725C21.2063 21.8274 20.9647 21.8833 20.7192 21.8891C20.4746 21.8955 20.2309 21.8568 20.0009 21.7748C19.7758 21.6915 19.5716 21.5616 19.4024 21.3939L19.154 21.1537C18.5004 21.5113 17.809 21.7982 17.092 22.0092V22.1762C17.1055 22.4122 17.0656 22.6483 16.9753 22.8676C16.8933 23.0868 16.7648 23.2865 16.5982 23.4535C16.4385 23.625 16.2437 23.7617 16.0266 23.8549C15.8121 23.9522 15.5804 24.0079 15.3443 24.0189L12.989 24.101C12.749 24.1165 12.5084 24.0836 12.2819 24.0045C12.0554 23.9254 11.8479 23.8017 11.6722 23.641C11.4948 23.4805 11.3514 23.2874 11.2502 23.0727C11.1478 22.8581 11.0879 22.6265 11.0736 22.39V22.0531C10.3467 21.8518 9.64428 21.5738 8.97871 21.224L8.86499 21.3441L8.83506 21.3764C8.67103 21.544 8.47336 21.6767 8.25447 21.766C7.82044 21.9516 7.33069 21.9694 6.8838 21.8158C6.66454 21.7357 6.4618 21.6176 6.28525 21.4672L6.2643 21.4467L4.54947 19.8676C4.37688 19.707 4.23499 19.5175 4.13049 19.308C4.0283 19.0938 3.9713 18.8617 3.96289 18.6254C3.95852 18.3899 3.99808 18.1556 4.07961 17.934C4.17102 17.7167 4.30295 17.518 4.46867 17.3481L4.71108 17.0932C4.34754 16.4515 4.0546 15.7739 3.8372 15.0717H3.66961C3.42846 15.0849 3.18731 15.0459 2.96332 14.9574C2.74011 14.8758 2.5364 14.7501 2.36477 14.5883C2.19121 14.4305 2.05179 14.2402 1.95477 14.0287C1.85805 13.817 1.80224 13.5895 1.79017 13.3578L1.70338 11.0522C1.69036 10.8181 1.72182 10.5836 1.79616 10.3607C1.88366 10.1442 2.01153 9.94555 2.17324 9.77481C2.33637 9.59799 2.53371 9.4546 2.75383 9.35293C2.97445 9.25979 3.211 9.20811 3.45114 9.20059H3.79231C3.99991 8.48922 4.28486 7.80169 4.64224 7.14981L4.53151 7.03262C4.35058 6.87522 4.20662 6.68132 4.10954 6.46426C4.00624 6.25045 3.94918 6.01806 3.94194 5.78164C3.93091 5.54571 3.97068 5.31015 4.05866 5.09024C4.14392 4.87262 4.27204 4.67354 4.43575 4.5043L6.01591 2.81973C6.17721 2.64594 6.37 2.5029 6.58453 2.39786C6.80313 2.29766 7.04054 2.2428 7.28183 2.23672C7.52214 2.22886 7.7618 2.26564 7.98812 2.34512C8.21365 2.42777 8.41795 2.55777 8.58666 2.72598L8.85302 2.96621C9.50536 2.61037 10.1946 2.32359 10.909 2.11075V1.93497C10.897 1.69898 10.9368 1.46321 11.0257 1.24356C11.1105 1.0257 11.2387 0.826523 11.4028 0.657621C11.5615 0.484815 11.7552 0.346147 11.9714 0.250395C12.1861 0.153459 12.4177 0.0977634 12.6538 0.0863322L15.0061 0.00137122C15.2469 -0.0075608 15.4874 0.0272038 15.7154 0.10391C15.94 0.184148 16.1442 0.311084 16.3139 0.475981C16.5014 0.631766 16.6533 0.824412 16.7598 1.04141C16.855 1.25738 16.9078 1.48895 16.9154 1.72403V2.05801C17.642 2.26042 18.3443 2.53837 19.0104 2.88711L19.1151 2.77871C19.276 2.60244 19.4741 2.4625 19.6957 2.36856C19.9139 2.26679 20.1514 2.2109 20.393 2.2045C20.6337 2.19412 20.8741 2.23201 21.0993 2.31582V2.34512ZM11.322 10.2553L13.0249 11.8256L16.4426 8.40957C16.7808 8.07266 16.9932 7.80606 17.4092 8.225L18.7649 9.58145C19.2109 10.0121 19.1869 10.2641 18.7649 10.6654L13.794 15.4438C12.8962 16.2934 13.0638 16.3461 12.169 15.476L9.03857 12.4291C8.99781 12.3901 8.96614 12.343 8.94575 12.2909C8.92535 12.2388 8.9167 12.183 8.9204 12.1274C8.92409 12.0717 8.94004 12.0175 8.96716 11.9684C8.99427 11.9194 9.0319 11.8766 9.07747 11.8432L10.6487 10.2494C10.8881 10.0092 11.0766 10.0238 11.322 10.2494V10.2553ZM12.4892 4.68887C13.9768 4.39612 15.5197 4.54171 16.9228 5.10724C18.326 5.67277 19.5263 6.63284 20.3721 7.86608C21.2179 9.09933 21.6713 10.5504 21.6748 12.0358C21.6783 13.5212 21.2319 14.9743 20.3919 16.2114C19.552 17.4485 18.3562 18.414 16.9558 18.9859C15.5554 19.5578 14.0132 19.7104 12.5242 19.4245C11.0352 19.1385 9.6662 18.4268 8.59033 17.3793C7.51446 16.3318 6.78 14.9955 6.47978 13.5395C6.28072 12.572 6.27825 11.5757 6.47252 10.6074C6.66679 9.63905 7.05399 8.71764 7.61202 7.89579C8.17004 7.07394 8.88796 6.36773 9.72479 5.81748C10.5616 5.26724 11.501 4.88374 12.4892 4.68887Z" fill="white"/>
</g>
<defs>
<clipPath id="clip0_2694_2991">
<rect width="28" height="36" fill="white"/>
</clipPath>
</defs>
</svg>
