<svg width="36" height="36" viewBox="0 0 36 36" fill="none" xmlns="http://www.w3.org/2000/svg">
<g clip-path="url(#clip0_2694_3007)">
<path d="M31.7777 13.697C31.671 10.1131 30.1723 6.71182 27.5996 4.21452C25.0269 1.71721 21.5825 0.320378 17.9971 0.320313C14.4116 0.320247 10.9672 1.71695 8.39438 4.21417C5.82158 6.71138 4.32281 10.1126 4.21599 13.6965C1.60763 14.2623 0.140625 16.6073 0.140625 20.3223C0.140625 24.6176 2.10169 27.0814 5.52066 27.0814C5.88511 27.0814 6.23474 26.9372 6.49321 26.6802C6.75167 26.4233 6.89795 26.0745 6.9001 25.7101L6.96881 14.1148C6.96877 12.6649 7.25445 11.2292 7.80951 9.88976C8.36456 8.55033 9.17813 7.3334 10.2037 6.30852C11.2293 5.28365 12.4467 4.47091 13.7866 3.91676C15.1264 3.36261 16.5622 3.07791 18.0121 3.07893C19.462 3.07995 20.8975 3.36666 22.2365 3.92269C23.5755 4.47872 24.7919 5.29317 25.816 6.31948C26.8401 7.3458 27.652 8.56387 28.2052 9.90408C28.7584 11.2443 29.042 12.6804 29.0399 14.1303L29.178 26.3917C29.178 29.4151 26.2599 31.0305 20.5073 31.2027C20.1639 30.6429 19.6431 30.2141 19.0278 29.9845C18.4126 29.7549 17.7382 29.7378 17.1121 29.9358C16.4859 30.1338 15.944 30.5356 15.5727 31.0772C15.2013 31.6188 15.0218 32.2691 15.0627 32.9245C15.1036 33.58 15.3626 34.2028 15.7985 34.694C16.2344 35.1852 16.8221 35.5165 17.468 35.6351C18.1139 35.7536 18.7809 35.6527 19.3628 35.3484C19.9448 35.044 20.4081 34.5538 20.6792 33.9556C29.4481 33.6551 31.7031 30.1179 31.9176 26.9123C34.4451 26.2958 35.8685 23.97 35.8685 20.3223C35.8685 16.6009 34.3942 14.2578 31.7777 13.697Z" fill="white"/>
<path d="M15.6935 19.2984C15.5761 18.8922 15.5682 18.4622 15.6706 18.052C15.773 17.6417 15.9821 17.2659 16.2767 16.9626C16.5713 16.6592 16.9408 16.4392 17.3479 16.3248C17.7549 16.2103 18.185 16.2056 18.5945 16.311C19.0039 16.4165 19.3782 16.6283 19.6794 16.9251C19.9806 17.2219 20.1979 17.593 20.3094 18.0009C20.4208 18.4087 20.4224 18.8388 20.314 19.2475C20.2056 19.6562 19.991 20.029 19.692 20.328L17.1349 22.8855V27.2851C17.1349 27.5138 17.2257 27.7331 17.3874 27.8948C17.5491 28.0565 17.7684 28.1473 17.997 28.1473C18.2257 28.1473 18.445 28.0565 18.6067 27.8948C18.7683 27.7331 18.8592 27.5138 18.8592 27.2851V23.5994L20.9112 21.5471C21.425 21.0331 21.7938 20.3924 21.9801 19.6899C22.1665 18.9874 22.1638 18.2482 21.9722 17.5471C21.7807 16.846 21.4072 16.208 20.8896 15.6978C20.372 15.1877 19.7287 14.8234 19.0249 14.6421C18.3211 14.4607 17.5819 14.4687 16.8822 14.6652C16.1824 14.8617 15.5471 15.2397 15.0407 15.761C14.5342 16.2822 14.1745 16.9281 13.9982 17.6331C13.8218 18.3382 13.835 19.0773 14.0365 19.7756C14.0677 19.8846 14.1201 19.9863 14.1907 20.0749C14.2612 20.1636 14.3486 20.2375 14.4477 20.2923C14.5468 20.3472 14.6558 20.382 14.7684 20.3948C14.881 20.4075 14.995 20.3979 15.1039 20.3665C15.2128 20.3352 15.3144 20.2827 15.403 20.212C15.4916 20.1413 15.5653 20.0539 15.6201 19.9547C15.6748 19.8555 15.7095 19.7465 15.7221 19.6339C15.7347 19.5213 15.7249 19.4073 15.6935 19.2984Z" fill="white"/>
</g>
<defs>
<clipPath id="clip0_2694_3007">
<rect width="36" height="36" fill="white"/>
</clipPath>
</defs>
</svg>
