<svg width="38" height="32" viewBox="0 0 38 32" fill="none" xmlns="http://www.w3.org/2000/svg">
<g clip-path="url(#clip0_2694_2999)">
<path fill-rule="evenodd" clip-rule="evenodd" d="M3.12265 31.9999V17.9734C2.57694 18.2309 1.96792 18.263 1.40324 18.0639C1.02853 17.9244 0.69843 17.6642 0.453864 17.3156C0.209553 16.9691 0.0582718 16.5513 0.0178286 16.1113C-0.0132617 15.7067 0.0282034 15.2992 0.139762 14.9129C0.25132 14.5267 0.430697 14.1696 0.667243 13.8629C0.694172 13.8239 0.725339 13.7888 0.760016 13.7585L16.2284 0.167003C16.3277 0.0653397 16.4557 0.00643775 16.5898 0.000705712C16.7239 -0.00502632 16.8555 0.0427805 16.9613 0.135679L28.5085 10.2292C28.2316 10.2991 27.9581 10.3851 27.689 10.4868C26.3304 10.9767 25.1694 11.9912 24.4111 13.3513C21.2815 10.5146 17.4005 7.06542 16.717 6.46676C15.4801 7.53181 4.6565 16.9084 4.6565 17.3121V31.9999H3.12265ZM32.8101 17.4826L32.6988 16.6612C32.8482 16.6402 32.9857 16.5585 33.0854 16.4315C33.1741 16.3186 33.2206 16.1714 33.2152 16.0208C33.2114 15.9361 33.1908 15.8534 33.1549 15.7787C33.1191 15.704 33.0689 15.6393 33.0081 15.5892C32.8394 15.4639 32.6364 15.4108 32.436 15.4396C32.2447 15.4334 32.0583 15.5079 31.9133 15.6484C31.8572 15.7097 31.8139 15.7843 31.7866 15.8668C31.7593 15.9493 31.7487 16.0376 31.7556 16.1252C31.7629 16.2484 31.7944 16.3682 31.8479 16.476C31.9013 16.5837 31.9755 16.6767 32.0649 16.7483L32.0061 17.4444L29.8414 17.1485L29.8971 14.9314L30.5867 14.8966L30.6547 16.4594L31.3134 16.5533C31.2242 16.3829 31.1733 16.1906 31.165 15.993C31.1537 15.8185 31.1755 15.6432 31.2288 15.4789C31.2821 15.3145 31.3657 15.1647 31.4742 15.0393C31.5929 14.9034 31.7344 14.7953 31.8905 14.7212C32.0465 14.6472 32.214 14.6086 32.3834 14.6077C32.6877 14.5859 32.9898 14.6777 33.2431 14.8688C33.4104 14.9944 33.5479 15.164 33.6438 15.3629C33.7398 15.5618 33.7911 15.7841 33.7935 16.0104C33.8214 16.3634 33.7346 16.7158 33.5492 17.0023C33.3654 17.269 33.0974 17.446 32.8009 17.4966L32.8101 17.4826ZM37.7209 23.0515C37.9071 23.3881 38.0076 23.7758 38.0116 24.1722C38.0116 26.2327 35.1728 27.9068 31.6783 27.9068C28.1838 27.9068 25.3357 26.2292 25.3357 24.1687C25.3397 23.7723 25.4403 23.3847 25.6264 23.048C26.4304 24.569 28.8333 25.6689 31.669 25.6689C34.5048 25.6689 36.9076 24.569 37.7117 23.048L37.7209 23.0515ZM37.7209 27.1342C37.9074 27.4693 38.008 27.856 38.0116 28.2514C38.0116 30.3119 35.1728 31.986 31.6783 31.986C28.1838 31.986 25.3357 30.3084 25.3357 28.2479C25.3422 27.8584 25.4426 27.4782 25.6264 27.1481C26.4304 28.6656 28.8333 29.7654 31.669 29.7654C34.5048 29.7654 36.9076 28.6656 37.7117 27.1481L37.7209 27.1342ZM25.546 15.892C26.2665 14.291 28.7343 13.1076 31.669 13.1076C35.1635 13.1076 38.0024 14.7818 38.0024 16.8457C38.0024 18.9097 35.1635 20.5873 31.669 20.5873C28.7621 20.5873 26.2882 19.4213 25.5614 17.8377C25.1811 17.1416 25.5429 15.8851 25.546 15.892ZM31.669 13.8768C34.545 13.8768 36.8736 14.921 36.8736 16.174C36.8736 17.427 34.545 18.4711 31.669 18.4711C28.793 18.4711 26.4644 17.427 26.4644 16.174C26.4644 14.921 28.7961 13.8768 31.669 13.8768ZM37.7302 19.3412C37.9013 19.6659 37.9931 20.0358 37.9962 20.4133C37.9962 22.4772 35.1573 24.1513 31.6628 24.1513C28.1684 24.1513 25.3295 22.4807 25.3295 20.4133C25.3342 20.036 25.4258 19.6666 25.5955 19.3412C26.3778 20.8796 28.7992 22.0039 31.6628 22.0039C34.5264 22.0039 36.954 20.8831 37.7302 19.3412ZM17.1747 16.9919V22.4807H21.5505C21.5494 21.12 21.1023 19.8076 20.2949 18.7949C19.4875 17.7821 18.3765 17.1401 17.1747 16.9919ZM17.1747 23.6432V28.408H21.5505V23.6432H17.1747ZM16.1449 28.4046V23.6432H11.7691V28.408H16.1449V28.4046ZM16.1449 22.4876V16.9919C14.9453 17.1399 13.836 17.7798 13.0289 18.7897C12.2218 19.7995 11.7733 21.1085 11.7691 22.4668L16.1449 22.4876ZM9.6508 30.8409H23.6658V31.9999H9.6508V30.8235V30.8409ZM16.6583 15.8015C18.2268 15.8061 19.73 16.5095 20.8391 17.7578C21.9482 19.0061 22.5731 20.6979 22.5772 22.4633V29.5601H10.7393V22.4633C10.7434 20.6979 11.3683 19.0061 12.4775 17.7578C13.5866 16.5095 15.0897 15.8061 16.6583 15.8015ZM25.4223 1.08238L30.0609 1.29818V8.3741L25.4223 4.91793V1.08934V1.08238Z" fill="white"/>
</g>
<defs>
<clipPath id="clip0_2694_2999">
<rect width="38" height="32" fill="white"/>
</clipPath>
</defs>
</svg>
